<mxfile modified="2023-09-11T06:39:35.717Z" host="app.diagrams.net" agent="Mozilla/5.0 (Windows NT 10.0; Win64; x64) AppleWebKit/537.36 (KHTML, like Gecko) Chrome/116.0.0.0 Safari/537.36 Edg/116.0.1938.76" etag="nCW3-pFy8Ae9EDITgAgW" version="21.7.4" type="google">
  <diagram id="Ht1M8jgEwFfnCIfOTk4-" name="Page-1">
    <mxGraphModel grid="1" page="1" gridSize="10" guides="1" tooltips="1" connect="1" arrows="1" fold="1" pageScale="1" pageWidth="827" pageHeight="1169" math="0" shadow="0">
      <root>
        <mxCell id="0" />
        <mxCell id="1" parent="0" />
        <mxCell id="jZVaUwOg5UY3L9NAnvdq-71" value="AWS Cloud" style="points=[[0,0],[0.25,0],[0.5,0],[0.75,0],[1,0],[1,0.25],[1,0.5],[1,0.75],[1,1],[0.75,1],[0.5,1],[0.25,1],[0,1],[0,0.75],[0,0.5],[0,0.25]];outlineConnect=0;gradientColor=none;html=1;whiteSpace=wrap;fontSize=12;fontStyle=1;shape=mxgraph.aws4.group;grIcon=mxgraph.aws4.group_aws_cloud_alt;strokeColor=#232F3E;fillColor=none;verticalAlign=top;align=left;spacingLeft=30;fontColor=#232F3E;dashed=0;labelBackgroundColor=none;container=1;pointerEvents=0;collapsible=0;recursiveResize=0;" vertex="1" parent="1">
          <mxGeometry x="263" y="125" width="1097" height="757" as="geometry" />
        </mxCell>
        <mxCell id="Dj1edLT6fhNG7aqNYXuo-23" style="edgeStyle=orthogonalEdgeStyle;rounded=0;orthogonalLoop=1;jettySize=auto;html=1;entryX=0;entryY=0.5;entryDx=0;entryDy=0;entryPerimeter=0;" edge="1" parent="jZVaUwOg5UY3L9NAnvdq-71" source="jZVaUwOg5UY3L9NAnvdq-74" target="Dj1edLT6fhNG7aqNYXuo-8">
          <mxGeometry relative="1" as="geometry" />
        </mxCell>
        <mxCell id="jZVaUwOg5UY3L9NAnvdq-74" value="Amazon API&lt;br&gt;Gateway&lt;br&gt;" style="outlineConnect=0;fontColor=#232F3E;gradientColor=#945DF2;gradientDirection=north;fillColor=#5A30B5;strokeColor=#ffffff;dashed=0;verticalLabelPosition=bottom;verticalAlign=top;align=center;html=1;fontSize=12;fontStyle=0;aspect=fixed;shape=mxgraph.aws4.resourceIcon;resIcon=mxgraph.aws4.api_gateway;labelBackgroundColor=none;" vertex="1" parent="jZVaUwOg5UY3L9NAnvdq-71">
          <mxGeometry x="191" y="485" width="78" height="78" as="geometry" />
        </mxCell>
        <mxCell id="jZVaUwOg5UY3L9NAnvdq-81" value="Amazon&lt;br&gt;DynamoDB&lt;br&gt;" style="outlineConnect=0;fontColor=#232F3E;gradientColor=#4D72F3;gradientDirection=north;fillColor=#3334B9;strokeColor=#ffffff;dashed=0;verticalLabelPosition=bottom;verticalAlign=top;align=center;html=1;fontSize=12;fontStyle=0;aspect=fixed;shape=mxgraph.aws4.resourceIcon;resIcon=mxgraph.aws4.dynamodb;labelBackgroundColor=#ffffff;" vertex="1" parent="jZVaUwOg5UY3L9NAnvdq-71">
          <mxGeometry x="817.0000000000003" y="485" width="78" height="78" as="geometry" />
        </mxCell>
        <mxCell id="jZVaUwOg5UY3L9NAnvdq-73" value="Amazon S3" style="outlineConnect=0;fontColor=#232F3E;gradientColor=#60A337;gradientDirection=north;fillColor=#277116;strokeColor=#ffffff;dashed=0;verticalLabelPosition=bottom;verticalAlign=top;align=center;html=1;fontSize=12;fontStyle=0;aspect=fixed;shape=mxgraph.aws4.resourceIcon;resIcon=mxgraph.aws4.s3;labelBackgroundColor=none;" vertex="1" parent="jZVaUwOg5UY3L9NAnvdq-71">
          <mxGeometry x="486" y="95" width="78" height="78" as="geometry" />
        </mxCell>
        <mxCell id="Dj1edLT6fhNG7aqNYXuo-33" style="edgeStyle=orthogonalEdgeStyle;rounded=0;orthogonalLoop=1;jettySize=auto;html=1;" edge="1" parent="jZVaUwOg5UY3L9NAnvdq-71" source="Dj1edLT6fhNG7aqNYXuo-1" target="Dj1edLT6fhNG7aqNYXuo-5">
          <mxGeometry relative="1" as="geometry" />
        </mxCell>
        <mxCell id="Dj1edLT6fhNG7aqNYXuo-1" value="" style="sketch=0;points=[[0,0,0],[0.25,0,0],[0.5,0,0],[0.75,0,0],[1,0,0],[0,1,0],[0.25,1,0],[0.5,1,0],[0.75,1,0],[1,1,0],[0,0.25,0],[0,0.5,0],[0,0.75,0],[1,0.25,0],[1,0.5,0],[1,0.75,0]];outlineConnect=0;fontColor=#232F3E;fillColor=#DD344C;strokeColor=#ffffff;dashed=0;verticalLabelPosition=bottom;verticalAlign=top;align=center;html=1;fontSize=12;fontStyle=0;aspect=fixed;shape=mxgraph.aws4.resourceIcon;resIcon=mxgraph.aws4.amplify;" vertex="1" parent="jZVaUwOg5UY3L9NAnvdq-71">
          <mxGeometry x="207" y="95" width="78" height="78" as="geometry" />
        </mxCell>
        <mxCell id="Dj1edLT6fhNG7aqNYXuo-2" style="edgeStyle=elbowEdgeStyle;rounded=0;orthogonalLoop=1;jettySize=auto;html=1;endArrow=open;endFill=0;strokeColor=#545B64;strokeWidth=2;fontSize=14;" edge="1" parent="jZVaUwOg5UY3L9NAnvdq-71">
          <mxGeometry relative="1" as="geometry">
            <mxPoint x="-43" y="257" as="sourcePoint" />
            <mxPoint x="207" y="135" as="targetPoint" />
            <Array as="points">
              <mxPoint x="147" y="187" />
            </Array>
          </mxGeometry>
        </mxCell>
        <mxCell id="Dj1edLT6fhNG7aqNYXuo-34" style="edgeStyle=orthogonalEdgeStyle;rounded=0;orthogonalLoop=1;jettySize=auto;html=1;" edge="1" parent="jZVaUwOg5UY3L9NAnvdq-71" source="Dj1edLT6fhNG7aqNYXuo-5" target="jZVaUwOg5UY3L9NAnvdq-73">
          <mxGeometry relative="1" as="geometry" />
        </mxCell>
        <mxCell id="Dj1edLT6fhNG7aqNYXuo-5" value="" style="outlineConnect=0;dashed=0;verticalLabelPosition=bottom;verticalAlign=top;align=center;html=1;shape=mxgraph.aws3.cloudfront;fillColor=#F58536;gradientColor=none;" vertex="1" parent="jZVaUwOg5UY3L9NAnvdq-71">
          <mxGeometry x="347" y="87.75" width="76.5" height="92.5" as="geometry" />
        </mxCell>
        <mxCell id="Dj1edLT6fhNG7aqNYXuo-24" style="edgeStyle=orthogonalEdgeStyle;rounded=0;orthogonalLoop=1;jettySize=auto;html=1;" edge="1" parent="jZVaUwOg5UY3L9NAnvdq-71" source="Dj1edLT6fhNG7aqNYXuo-8" target="Dj1edLT6fhNG7aqNYXuo-9">
          <mxGeometry relative="1" as="geometry" />
        </mxCell>
        <mxCell id="Dj1edLT6fhNG7aqNYXuo-8" value="Lambda" style="outlineConnect=0;dashed=0;verticalLabelPosition=bottom;verticalAlign=top;align=center;html=1;shape=mxgraph.aws3.lambda_function;fillColor=#F58534;gradientColor=none;" vertex="1" parent="jZVaUwOg5UY3L9NAnvdq-71">
          <mxGeometry x="337" y="488" width="69" height="72" as="geometry" />
        </mxCell>
        <mxCell id="nUnaH1o3NNcMAfnU3dBg-2" style="edgeStyle=orthogonalEdgeStyle;rounded=0;orthogonalLoop=1;jettySize=auto;html=1;" edge="1" parent="jZVaUwOg5UY3L9NAnvdq-71" source="Dj1edLT6fhNG7aqNYXuo-9" target="nUnaH1o3NNcMAfnU3dBg-1">
          <mxGeometry relative="1" as="geometry" />
        </mxCell>
        <mxCell id="Dj1edLT6fhNG7aqNYXuo-9" value="Iam Role&lt;br&gt;" style="sketch=0;outlineConnect=0;fontColor=#232F3E;gradientColor=none;fillColor=#DD344C;strokeColor=none;dashed=0;verticalLabelPosition=bottom;verticalAlign=top;align=center;html=1;fontSize=12;fontStyle=0;aspect=fixed;pointerEvents=1;shape=mxgraph.aws4.role;" vertex="1" parent="jZVaUwOg5UY3L9NAnvdq-71">
          <mxGeometry x="466" y="502" width="78" height="44" as="geometry" />
        </mxCell>
        <mxCell id="Dj1edLT6fhNG7aqNYXuo-17" value="Amazon Amplify" style="text;strokeColor=none;align=center;fillColor=none;html=1;verticalAlign=middle;whiteSpace=wrap;rounded=0;fontStyle=0" vertex="1" parent="jZVaUwOg5UY3L9NAnvdq-71">
          <mxGeometry x="207" y="173" width="83" height="35" as="geometry" />
        </mxCell>
        <mxCell id="Dj1edLT6fhNG7aqNYXuo-20" value="CloudFront&lt;br&gt;" style="text;strokeColor=none;align=center;fillColor=none;html=1;verticalAlign=middle;whiteSpace=wrap;rounded=0;" vertex="1" parent="jZVaUwOg5UY3L9NAnvdq-71">
          <mxGeometry x="355.25" y="185" width="60" height="30" as="geometry" />
        </mxCell>
        <mxCell id="R_i-0XahZAWZmcxzA_rE-1" value="1" style="rounded=1;whiteSpace=wrap;html=1;fillColor=#007CBD;strokeColor=none;fontColor=#FFFFFF;fontStyle=1;fontSize=22;labelBackgroundColor=none;" vertex="1" parent="jZVaUwOg5UY3L9NAnvdq-71">
          <mxGeometry x="47" y="415" width="40" height="38" as="geometry" />
        </mxCell>
        <mxCell id="R_i-0XahZAWZmcxzA_rE-5" value="2" style="rounded=1;whiteSpace=wrap;html=1;fillColor=#007CBD;strokeColor=none;fontColor=#FFFFFF;fontStyle=1;fontSize=22;labelBackgroundColor=none;" vertex="1" parent="jZVaUwOg5UY3L9NAnvdq-71">
          <mxGeometry x="210" y="415" width="40" height="38" as="geometry" />
        </mxCell>
        <mxCell id="R_i-0XahZAWZmcxzA_rE-6" value="3" style="rounded=1;whiteSpace=wrap;html=1;fillColor=#007CBD;strokeColor=none;fontColor=#FFFFFF;fontStyle=1;fontSize=22;labelBackgroundColor=none;" vertex="1" parent="jZVaUwOg5UY3L9NAnvdq-71">
          <mxGeometry x="485" y="415" width="40" height="38" as="geometry" />
        </mxCell>
        <mxCell id="R_i-0XahZAWZmcxzA_rE-7" value="4" style="rounded=1;whiteSpace=wrap;html=1;fillColor=#007CBD;strokeColor=none;fontColor=#FFFFFF;fontStyle=1;fontSize=22;labelBackgroundColor=none;" vertex="1" parent="jZVaUwOg5UY3L9NAnvdq-71">
          <mxGeometry x="645" y="415" width="40" height="38" as="geometry" />
        </mxCell>
        <mxCell id="R_i-0XahZAWZmcxzA_rE-8" value="5" style="rounded=1;whiteSpace=wrap;html=1;fillColor=#007CBD;strokeColor=none;fontColor=#FFFFFF;fontStyle=1;fontSize=22;labelBackgroundColor=none;" vertex="1" parent="jZVaUwOg5UY3L9NAnvdq-71">
          <mxGeometry x="836" y="415" width="40" height="38" as="geometry" />
        </mxCell>
        <mxCell id="nUnaH1o3NNcMAfnU3dBg-3" style="edgeStyle=orthogonalEdgeStyle;rounded=0;orthogonalLoop=1;jettySize=auto;html=1;" edge="1" parent="jZVaUwOg5UY3L9NAnvdq-71" source="nUnaH1o3NNcMAfnU3dBg-1" target="jZVaUwOg5UY3L9NAnvdq-81">
          <mxGeometry relative="1" as="geometry" />
        </mxCell>
        <mxCell id="nUnaH1o3NNcMAfnU3dBg-1" value="Key Management Service&lt;br&gt;(KMS)" style="sketch=0;points=[[0,0,0],[0.25,0,0],[0.5,0,0],[0.75,0,0],[1,0,0],[0,1,0],[0.25,1,0],[0.5,1,0],[0.75,1,0],[1,1,0],[0,0.25,0],[0,0.5,0],[0,0.75,0],[1,0.25,0],[1,0.5,0],[1,0.75,0]];outlineConnect=0;fontColor=#232F3E;fillColor=#DD344C;strokeColor=#ffffff;dashed=0;verticalLabelPosition=bottom;verticalAlign=top;align=center;html=1;fontSize=12;fontStyle=0;aspect=fixed;shape=mxgraph.aws4.resourceIcon;resIcon=mxgraph.aws4.key_management_service;" vertex="1" parent="jZVaUwOg5UY3L9NAnvdq-71">
          <mxGeometry x="626" y="485" width="78" height="78" as="geometry" />
        </mxCell>
        <mxCell id="I_HhYxaz7bKUwN-vKP4Y-1" value="WAF" style="shape=image;verticalLabelPosition=bottom;labelBackgroundColor=default;verticalAlign=top;aspect=fixed;imageAspect=0;image=data:image/png,iVBORw0KGgoAAAANSUhEUgAAALQAAAC1CAYAAAD2kdWXAAAAAXNSR0IArs4c6QAAAARnQU1BAACxjwv8YQUAAAAJcEhZcwAADsMAAA7DAcdvqGQAAIqGSURBVHhexf3psy7JceaJ5b3nnLtUAajCvu9rFXYUCjtBgthBNoek/hCNeto0/RHfRrJRD3skM5lmenpkpi9avmnUPWqCIIHGXtgIEkBhRwGowlLYUetdzrlXz+9x90iPfN9zC2wbMz3nRIaHu4eHR2RkZGTk8p45vvfe68f3/XhZzix7MDP3qvy+GJkhrmfyjKiVPg3XFfZKw1SgKexnF1US0DL9njizybKn+P8/4MalW3pDlRL2thFOYZeg2uK65Nt22UVXaAZ7Rhsqms2ZSGpzXbKgm/4Wh4fLmUf/+iPXH/3o3zpTZt+PFN1QZwcjU49WNMbvZfcUlcE+pbL/FC6Y2liha5557D3XIN2mfqb242kmrN6Fbccbp2Vs+faoDNbe7LvMG+uDEIym2DbSDmYhw5h5v0ceb2+ol+KzZ5flwoXlzAP/5//L9Yf+u//ejHDwBrklCinbPbWQgeD0PZc62ptBbfNkLOx06jVr0DfoTEOCzr6jGbLcEkrePe2g4zb1IR96u8SAOafI97NJRCXXA6aXHtjfaSvvrtxR2UtzJBkIi56JFYMDMfRXPVg7uTZ2ppQTbMrX3E5KgVDVNsvtauzZkDs54P31+McvZx787/+H6w/92/8xevgGq39hpNnvwoZR87k8116c+F9hfpBgGv1SBqfKHWj2K7ZO8fMcOMmEYb/t0dIxnJg4A6flZcpUWHWCDknugjILM5NrzjmvsdGxPPM63bYrUrtsNZgjfpfEdG/lDB+E5sYuxAz+Rpr2T8tbVShM3ojc6q8c+Zm+7RyMBcp2h/43//b6Q//j/3Vvhy5E5j3F7VhdsV80N+hAY97IZiE0tN2jOrNmnR31VtaOrHAjnSGjlTd122NwuwM7dlrmseRArD3cwGl+b3wGszxj4ZS9ZYSZ0+WguSBkovGC3GFM2MMSMmcXklCHXntxdX0B2a6hOI13PhP1aJgIu3m2iDIYGTyyTRkiYZuhNtAbdqVnpYnrCsDZGCoM+YrSJJ5ytXYxtclHCp9m7oou6aM5ODXXHvZoryFTOv5XNN9OsRzINi6dyUYmbuibQjXL2JcN1byt6VaIlyYSKGVwRFy0grFq33DAUz536K1LdCrSLrgZqDJ2bGbmbqVXpmiyNcuwRtRhf1wpQuUJDHrjxKoxY9iBrlAOJcrSxMU+gowGyJv8sBNhstky4G90+PgbkPq2Xk6l3TK3zeMAq/wTit19gLSa6eIr1XUUSmeCBOFDhAkkFegX6fHpmIsTIrE1uXqxCly94djKtz/J3/FNmOYZodAyE8Rb8wUx2Sm68xLodd2V3KO8h7dPC5jfhVtF0gore7TMQG+MbfbAPnnuQjYKtQvMa0XYtJkBcu3d+Tss2jqY6wxc8dBLgmjwTke0P4qrtS0e08xu0xm79VnTUS5EpiMSVmNZzcSUMFr2XWwFo8BNhzbM39cBkhjWIh7qCt3JsACjMY2yzc5L8vfBxlQ1qA+4LkgUbxrhEsOD4QBx0uYFDbn6WMRgJHbtD52N6j4/97EmiyUfeo2xOhfoSRuZ5Rvtkb/4xDs6iWjlJv19MoF9zWPIWis/bNeBl1Ciqhg6W4TxLjtromnuZuocDKhQl7LrKZyQbSo/Yea7Q2ZYRatt20n+1maUtYvJVpoKXoSdXDA6M1XLi2HPOlF/hxAmf8ZQBy0R+ZRozTfZT70Vu8ypBso7TIkY7ricpAV0CMUzn3O6M0iXeB8sZhP0hCk9vBB79XCUm2WEZJU7HnZaXZo/o/wBEhG2fu9d2qjCVysRBz/aYZXBZxM0cHpUJRC8LVbmWpGxMQZfhOm9dgQKQFbyzGif9bfaGVRgv2PGxtRKzBO8AMVnWaXobTff6LnYZkskIos3vg1+i0Hsq4ZMYjUss9/CswnbfI8F+7Y/T9W95FUjiujFFL/iYW7H7NAQgu6cfcDETofu+ykcKUYvectLam+JMJGqqqk+VxJ5hszfG6Dzh3Mp351ODEGPVmw7oTAV1bCbN+PHwuxCoCcGvZZsFhuFrhoawamOAkqny2m0nne2tMLcvgPawVk5elnACwPWCY2tfKBMTmWvumvzly3CbKu7FrJIrHk7xOwCqapDz+5hrPx3RVbrAz4aYTs0uclIe9QYSqqibO03VzrI8GXeMebAz9DbAdmKyNV5vSyTbBS6b/YJGaCMQaaO9Tq54edf+KVNVnLw0Rnp/bAEIZGCTTkwp4x8pAsuuvRNBIKqbUiGFL+EVTuwtmtNJQm9tNBxoZaHZ3O5Kz2TpR8g5SA7DqTsV2Sy+YSlPd0SKykiE/ZKmzFCVyFBV3CRIswWBmGs7KBiO1eglMrmaciSEihHtIPOb3I3QNEurBIZC6ETDG9RSzlRkjuY+HsTdAaltJnaDN7QASEvFrKSz3SFVCy0vB2Dhfw0OG+GxKRd/BZN8kKzMfu8alc7mG58ky0JPdqrC6oLKQ4zqVG6g58QTZqgDr12QFCOdAQHKyQ28sq+4eeAUK6kPELI1kob+8nZ7KSTiYpQ3CcHInsta23dGlu/MzZRYaMzlMweOQQYG92hs+rZt0ltIytsdEhO8oaVG7a8bW0SeRNj56y5VkqY+EGzPc23mmLs+JbJlU+ssFa36aTfXQaUXt0hsWbf11fPRqVXwdYgacK+zIV9kh31YbdObfvQCk+SyOqESbwmsFfpzoeMxpybei6/6QtDYmKWGbBmYw6hyXbyYMLks7eh3w2elnunzSorQGRx2VJ90ffOgz8DWVnbI95B6XbtGhTAjm8FVCYRDIWmHy6ute62ihfI1JQ9zowdMeUo3WEhGwRK0ZTJOjBW+cCOcmCwLerydKhYLe9OxdI3dsX2b7gtgnRh1GFs9kEC9BwGJ0LjWZ5RsTpCN3UyDKRs9a0qU/wNzE4+G8KoJEn9Zd5QErLulexArQRN3ag2AlPekakVLJTOaJti7MNQznhgtRkmyvNUTNvNtdXPxrMZ13sNZ8v22pnXXt8ra1hpKAohbwdrGM58nQ/MbSZLbpboVR4CVxKy22n5V0ihdDZyX4zqb7ur96mXzk5xw9HSzh3QFQuTjrBtnMw0Za0sidXXWbAdvUOqbWcrud1tAQRBDfVpB0Q85e20ENqrdx3h2552zjJ2+lKhsXdVxIBXblqBEuJvRdKS50Vh5sAhMWNFIkIBqgyu+oFdR0J3byVsM8JWvlptfJHWc1C6FU0j8gd76MyuRZ4tpDex8anVF9nWzF5QZESRIUNE/Akbn1LlVOBZ5B0WBjZeJ/Zbs2ZvM9dx1o72D463bLpCwXZif05elb5C2FrtFYI/Y8sbZrL9V0R6yx1wkWEr8nsO7bT5VdBeJypOvYiTKUC2ZMN+7sqP2PZGakXXcmgKxavtvqrTCfjbdo6OnfoqPbG28mi+UeoWU1ZCY5Q/O3l3dCbWjdEVd6op4R5jlSxP7ONGx9jUfWqrylOsWXWG/Ip67SqvJoPYFLmTjtZvFW3yGKHJscm1r1Pvw1Zv5yAzuo6qpDwjG/GUaMnCJj3LIzEq2GWdLr8oO0mwspO78aVAauYk0HfItBGJzprExsoZTVYs4uFHoicbPWrT5Ri8gU6JRt0HR7HKrVSBdOfduG+ssr16E6vrbuNt3p4eLbbqRxTPclQAPjNpQ4iOt4ZC77RxmlitNDUBWYUQhLzRUWAlzAdOOmiTbKIK4Q8hdUM5/mC0fGDUQ3Q/up01UXKjVRL+brkK0OW/ZT0kIZQlUoPtePWJ7Sh9LazpkAFeyTI4yj/pmVc6aYg/5xdQ8YZ/hVHUyKRAeSlvXG20zeCyEoNGyfnCF/ehYMUm1QJhlXKjbPJ5azryrn+hHzqD6zLMNpCNGysBlBCE8hbFK9Fqq1mVjcJqp3gVb7wgdBMJa3fV9tdBpeB07qwxwxaqEqfhBuK5SiIUbmTtRrLAqjHabE+mUUrJ9rbZqlO2Bm/Ea0Y4xZ2xcktn9W2TIzvuPkN7XDRmv0DRkWOWdYhf5ff9nrzRoWOkJaSy0J0JOflC3mUBjtokN86s/ECVdGPEqLiDYWsjha/QR98Jls25qi6FrdyYVQbM3gwPld/cErUymvacsG8jp+Ed2nSqXmNHpyzG30l11Sl0U6XcM+xgFe5T21hPnSx1TwZYezuo/aqa7WLI9mSNvCtKZTNCg1Wt22Hn06ndsUXHERb8CtXpt8gsA+QkiXYvI1IRRjVnheaeBKlO2ea7HJihZDp1LBvkMJI6EUoeIerklCoATVhzCsipXIY1b22EqnzmH4BEllglsRvtY1d32ejnqdg2g48aIeSJRkKXTvlBduukIMj4C4Y4mQ9ZAbrSqWl76XHYTYRv8Tf51lC+VLbQNjFk0YQlWT2wjJQ2yaFDO7szFH0aooAwa03nCZRBbzdmKj3zy8HYJpnIU1hBia1NEBZCgHzV2aPceJVnB3vYZrXCd1T2OSaMfNeu7YbKk/F+C7t876NW3lr7wJTaZgZkT9LaslV5dtSnck5B86f6xX8yMDUsEFfQtrMbH1g2FPoqx4iSJjTFfaNvaXZJZel5O4K/tVWW1vygyKiotk1mG5nuR/+kMrDJu1XKut1olyDZJzW/jBN3mjfpz5/z28hnbrklwuMet5w5J14itROkgtO3xtTIGRtTYmCnLpVUXKNpYeh2/0GvS+cn4JhbfWOj01O9P2z7hrMTxA7fNgPaBsgsd7HlfWx3phzhuzdTJ+5ObPs2EgdtkEXQpuUpBJtRqjHsWdelA0aabTR/6KwmRTivuY5BcFYgGzYgIhFxgrLMlr2q+4zVam8H58lgPv7YJ9GMxDfftBw8//nL0dveuhy9/30K718O33TncuY5z16uUxZ6ymfrLjeyhjdxmg7/9QerCnOGwFQvQqLndeaW1/UdrPgz0n+bIhs8KwYf2vyURf7UKXQakLTy6o/b2X8BZ7EOdOqs1iegOzy2gdAJW2f2zaEfG1ufO5BFSIc3yrHjzy5nnvyk5ei22xwOnvbU5Xo/FQvhcKT7FqxqK28C7I0omimZJdvq9PKabORLWM8h1GapYKZ2ysWblrPPfvZyeMcdy9Hb3+aOffCa1yxnn/GMVS+jHv4p2NFPxtbngT0ZrFt1KvS+tJUl4OxyUd1Tum0QhzwUvFlRyQ17C9u3PxUCUO7QPX+nwZr5Pw07Ofnk2OMftxy++CXLube/fTn/trcthy99qb9LVqPAwDgMd8u/kUvRnArW6XsGRMahcypS1tSwNFvbkx/HMs+Z8+eXs095ynL4khcvh7ffvhy+4uXLwQtesJy99YmznX9q+07qFJSkQL3G/iJ6DNMlHmrK233r2SdTzWdTNYoTwO9Tpxuo9D4X+2oX+4rYGaGnylC5dPL0Th2yrZR8VT/Lya/OfPamm5dzr33NcvHd71ou/skHl/PvffdyjlOyRuozdGqN1C6qO+JEhSipi8M1Nt6dkqWu/rvfnV/1SnNGnsgCXYZqkvA73bGvjcKrBrIoTKrNjsnMFPZahuSbVbQSbt9IKBV/phURrIoONpyOzGzRrFAUerv82kZeDEdawG6h0chXz1aMtleIOu5inZbU/kx00nRjSPcxpxwukApG7h0MhxxXCH5mnaGLpMMXvcgj1cGTn6zpxtOWo1e9crnwnncvR6977XJW6ejUPWPRm1gRavasREI1hG0gHOr9z4wJyQ0UmdUm6SCbQwv7TJUcThyunxCOI8Cb6iEoef2abKB7LDlBeRyod9W98hXtHezsG5NrIuqVaUXdTGFtV1WsdJSKUBT8YUlYqQ5zMVAdc9gOdAsdQ3ej3zGXvv7xX4A0NwiHtUPfwHiH8210q7M/tgkpoMRVvkbr61evajp9djl83vOW83/wB8v5d7x9OXrZyzT3vBjyMki0x/gOR4zpaBacYtOVbW9P/gY3npVaKFBf+bccHsUnXHXxd+YJT/BU4qwO0rO6Jjjz9KfpOuEp8QHBw8ORjxWOM7dI9+lPD72nSP9JmoLcemvo3iRbmqosR8pzVuVQVrbv6odCsqISJa8oicImuW2jLg8yDp6qM9tS6XTJJ1e6bTMiPfKcAuSTjhKTn6lwWt2Ke+Z3/92/uf7A//BvYwcl1g66jsw+BVQFqoH3oMusr3TXPnvuaDl44QvVed+xXPzjdy0Hz3i6d+D14+Pl2q9+s1z54peWSx//2HL1619frj/wgPLzmV9Z0H+a20D2LctTE3LcbHompTTl36fDtvGcIWP7QBsdHARNR+bjgHTgJ6ojP1EdUp3ay3I36YB0x711OXjqU3URqDpykMrO9YceWk7u//ly7Sc/Wa5fvrQslxQevWT+9d/+brn2m98s13+n4Fj1ZwTnDIAvjOLAvoSjU+uaLD5VDP/tb1YFQeVBvuaXwmicyF+ofdr7A+aGju0nZzBnOXT4s0sbSTTOXlT5gfTZkWIGhBt16NPwWPKOUF31SbNzuRA8f+cbl3NvunM5fO5zl7Nyhp13fN99y5W7716ufOrTy9VvfWu59rOfybeDMlSRsNp0jRL2rZJNpRoqmrE2K5xESKfTH3bOMALrAKRz4t/ZJz1pOftUjbqMxhplzzw+OvBZOrFG6UX18ujKGYivydOpz50XT2kdCIYO3OuXryzX6cjQx1eX5cqVZbl8ebn+yCPq2A8rVqCDP/BgBDr3r3/tzr6gc1X6V5SPDk5Hwlf236ZOwPWGv6dNwNSB9pMTdvjrDgm09CQxf9eJQTXlyacOsWdZ2RNfA9//4h0afo3iYFVb9aGYZ3JqPXzWs5YL73vvcu6NdyxHL32JT83Irv3ud8uVz961XP7Up5bLn//CsmhqMnbcjs21PDB3aJcWZPMBzmpHdOlnGdEZj9RpNereestyRiMwS4sHz33Ocvb5mvtrnm8+0wP03ZkUd6OtHX4vPkBWo7E7/uXl2i9/tVz76U+Wa/feu1z78U91FvuVRu7fLstvfrtcf1gdn1Fec3Iw9suIWrqK3dBTBylS8nUfl3LAB86RDnIO9iuXw0/4IXa+XtSA7XXNAKnIk7kyWstPZHLu0CAyuEM/4fHLwb/8Z3/24ctf/vvVAHFvdAzEf9AOXS7OtnAhWKG/M1UhpiG0Q6795tfuyIfPfKZHtzNqLAKjIXpMO66rgzOKndFp1ifJKg6zwyT8KMvl6J9iu2/Fb6ywwcXbiTqSBGdvuWU50IF28IqXL0c60Ly0+EfvXI5e/4blUPP7g2c8w3f8zjLlYNRlB1eH7qBj6uDkIi9Gz5TDV9jhA2gCfKY2jPCcAXQAMU07eOXty4HObKxtn2GKw6pQdv4zHPS0qW1ghl0ftkdnEcyD7WjtSKGbes2nslEHmqdUz9GB/ZIXa6r0qM8sZzhTlO/R6JFnJkVnQoAidN860A3Z8GCG5MFPKWnOhr+tEZoeLtnezEJ35jT8k3RoHDnM9OPoFa9Yzr35TZqC3LkcPOfZPoWzAnB874+Wq//41eXypz+zHH/nO8u1X/xCBuZOYGrdJKIhCrNblZAOPjBH1/Qh5rrPWA50YJ19pmLRnh/XBRsXdnS0BKOnpweMkkwDCEwj1LFiGqELXs2lz7AOrYteOgLlMW249uMfL9f4oSZscjYg1rSEDkp7nLn55hGs0yrgcnSAX9MU5Povf7lc//kvNIJr5NbU7LoCfObkPkhzn87IjrDh76iBvq8YlXVK940hHdhcF5x8/e7l2je+sVz/3vd8MLkzDzSLIvfbzziJSaclTunScq/4Kle0L6rdof/NdsqRxAb7Oiy8eZpxAx2JQrpup+nHhz6wnH/D672s5+mHRoVrujC6rPn05c9oTv2lL7uj9PKArU3lhjzKNTmLyaHR3jc+Hqed9MIX+KYHB5Y79FOe7HmygQEFVmQ4SzD/XdRh8evaL36pKYECnYt5LmeTR9Xh6OzSO3j605dDjaqM8nQARrmTH/5wufq5u5arn/msfeD0feY8KyU3e15+loOH8p+iA0wHlC8wOXMRmJvXWQFw8DzyqPzQReYPfriccNAT6NxcUDJyciagGq3+o4NYECT02nHWcdP7U+EMB/eLX7QcvvvdOnu9wgf5iTryiQabk7/7u2V58MGYGraGXvuG8q/sGea3PBkbLbH6NsP+UQb7kwPOU46//3skNnBqwYIzC+Tfp1fyfUAWTm10yMOpWSPPtV/rokdpRkuPVDn9OHjykxSf83zx+m81d7ykuZuzhkU32WS2yonGBFFxWGyUVuc5fNUrl/Pvfc9y/g/evpx73WuXwxc8P0ZjTuV0GnTxTSMeneTqN765XL3rruXKp3VwqVMef/nLy9WvfW050cUrO/faj34Uo+XPf74sGjlx6qx8P9ABSmf1AXr//cux8hzf9YUcYXVA/Pz+GF0ZuWXj5HvfD5tf//py8t3vLtd1ZvISJ525RnQgH91GXLDqYvWszgQ8O0J6rKDQybJT+b83VCdpnqGmPzEsJq2D++DVr1mO3vve5YBlVV1TeEpEO3EQ60KeDm0fbb+CDJKO/4EsxqhyKkxIBhoxIK4+jYAxSGQ66NWh/5nn0KGQGRKpO/FI4eM+TI21B3vl8LLjMCe7zoUG82VO12qws+rYZxmdOB1zCubqXjvqOiMCeW0y7M7mSRBkm7ZQGa6w5qOHL3upV1fOaYpz9JpXLweak7L05oNIRpg6MOIe/+AH6nxf91Li8d9/xZ33mI6mUfbaT9UBuUD77e+8IrFc0nyS1QpOvdTl6nHMxzXfZO4N7bmz8px857vL8Te/OXQ9B2W01ci+aMT1Cocu/K7/6tcqQ51eZwI6/MmPdGGoA+Y6Bz66tBsdnLl2ts9Zlg6ZX2uE9yoMnZ9VkROVpfKdR80y7+mGYtNeHCw6wM++QdcPd75Rc/hXeiCgM9NG1ziI1T7XVB/OTD4bnLaPG/aV/Fh9B9xIx7LRoTmVp3JlUrUndFOPaTgBGaHz6jQUtOVYh88pXUc8p3F3Lk0HvL7LTuN0wpIZepq3spbrq3tM2TybPNjKeSfEO9Boe0GV1bz48PbblvNvfYvXwf1gFGcDDhj55J2k8k9+8hN3uqvqxFfu+vxy9bOfXY41V7z2wx+5Q3Iw1XzZnZGnBymLUZ0ATVIXtqyMHL74xaqLDkYu2ujQ99yznHz/+5kn/bOviuh0dG5PbzR1efAhHzjXNApeU55r994XHVxnNB/czhRlu50YADRvP/u857p86sYaP2WfcSx/oyhaZtBG0bV/WN2R74fvetdy8KpXeSpEOZ7H68BiunHtH/5hua728kU1FmVjNH83nvUDplq6MPqG4t5nwDa9hcuKDv1nH740VjkI6Q5GiTLUNhCOB9n5iYm15jaF3Qw4H6UE7IMa/Zoutk40Cp09OmX1g9UO1mfb6scoBxtrUrIDj76HL3nJcv5dfxR3I1+rCxsu9lgfFny7WiPyiUbkq2qLy5/4xHLlo3+7HN/9zRgRdeZwZ8gdTR2w71UX01FYtKGJOCMwFeBOoObSy6GmC7LDyO7pyT0/WO3JWM9bAR4rISlxp3Fn0hSEaQnz5ms/u19tEFMwz7UZkZkOkE8jNBe4ZzUN8XPZ6sxndIC487njuOTIK7g8DRJnOEB1XXPw6lf7kdcDndEY9fHJy6rMnT/5yeVEZ67ozGqbtIPrhbBdQXaxb2pFUw956hhNCB9EhzdnFdug0gxaY8oBoxkAZWQXwT9VDCRbxWvhU2XM3BjBYXUeOpFHKYWzrPcy/eC0yk6DZvqh0zqn3msPaye5wFaH7CxnNXU5YlT+oz+M6QU3cXjQXjv+GnftfvwTTyuufvHLy5UvfFH0V5fj79/jebBPo4xozeswH2VVquBaNpZHXg4WRlmNsHTC429/xweOVyOwMRyesgaoT5J4oO4U0wbmxZwh6NxcU3guLn8VL3RYzLK8xiBAm3FgMeVRm/jiVdMaLmzDfitVcvIsmmYcvl4X529603L4ao3MSntk1j45kf/XvvjF5eQLugbQ3H/heqa3RTNXmFlKna5qnN7vEiN/06MuMULToZlyJLMrkdpjOwqMnQw9TdgbQm+VbxGsDR8mgY6qEfhEF1ecrlnKq47IPPHg6fFM8fVHH/bNB+/o3O22mx36zE03L0caaRidD5kr6+DwiKxpw4mmEFd1yryiU+fVz39hufpVXeCpgy/q6PZdOzGMEVaMBo/iBkYLOIvqzYH5oKZQP9Hp+XuaZtSFI6sikg07Cac6TzSpqEnKgf1SzNSEKRo3XnRByTTAZy2EN6tDM53JTs3qCQfAyb33qlPrYGIObvutPEZ1nbnOvuSly5GmGYdqtzOakrkzc8+AacZnNc1gZFZdYvqienY7iprFgZkn7c6YEoFt20ywTIED0HT0r9ahY8oxjFQGKe4zvNmPkTfpjtVcdOqyZX2R2eesGJKwDO1pBB1PO8G3fKVzwIXOvtUP5r4aqTxqOX9Zw4YuzhihnvRkz8E5HdOhrqgDX/6Pmlp86lOaz2rEJL/K882O6jBYClMD2GZRK8TaZmNs+a4vB5l2uufCjPbqFPaRcjaGp5RlhNhRZnkbGO2PTMF3yShHB6KXEe//2XL9fo2etBPtpQ7NPPxEZyJWZjhj1JzXwFdirlM0HTt633uWg5e/3J0b+6xeMM04/sQn3Znp2NQhfKP8qDsYfoHc56Tsc+r3epkMatUh0DlShy0yYHl2HJfb6KlDeyci8HYX4UxgR6cVfCN0Gx3B7jJoBZyl4bjyp1P4ZkVOP7j4yelHrH5oevIoNzseXO3xT6eSHfJzJ4lT/5UvfUnTiy/o9P9tL6O5k6FXHdn5QeyMNb3Ckkl3F0OUPhDGbfaSnpJ/sIu4TsdJOuEkTEK1ldqB9lo0UntdnBUYHUxc5LIMyIqEV1ei+yi6prOeOj4XgHewmnGnlzO5G1qrGSff+Kbmy5pmMDK7vfZPMzJKWYuFleoQtwn26shG5w+6CMUmiacObYTW6scgjNM65MjADjtF58adGXR50ggV6IzXdBHIjQzPp5l+7Kx+xGnxRHNJOrFHDO4C0o+4GGNaotGaOSwrF76o0sjPRZDL4YzQfMTfkVrZxtTEG1nB9d0TPJpCC2NUy/QWgx9qI93VTbMhMMWAWVMRbrD8mqXF3y7Xvqvpji4iPc9OfcZVx2rLA100H/L046te5VUSTzOYonAR++lPLycaBK7dc09cHJOfklxYwKzClAhMnC5v9Gk6vX1MTemkxRsd+tKXvjxnanRH8RkMusqOvtJwcj+YPs1mx6qya4/Rx/O4X6sTnrb6Qaem4+fqBzvFUxc5wujOqZglOS+7eZQii3drK3tFNVZMJUSfprOHD8zGMA026IjYOFJw+QpGc8RtllnBaH/oDGBt24qDx42cRWcsViKus8zJaB3COGsocHbjdvbRB97vaYbn2uRVe3s14xOf8Ohc04x5P/bykhDKZVjoE7sJUsfpjG2vt0/CFOmSp2zVmOFy6ND/5Z/GRWF3dHa6o/iry6eqFiiox78HdsonTaVYHtJo6+nF3tUPbmU/znM+P6LJnLVMMWpfYdqijt7Wr/fVdQ9LqHo4McGSvXlGriwulfbaKIgqtYzT1caAIyidnJFnwGnp1TSEFSE6MXzqz0CgznvAowZvZjXj1bESwsicqxl05GNWMzgYuPOozHPbtMS2fGFmKbXRcbIbnI0bE6fXd4Pq0DFxvgFoumy+xCY1J2+IUmUiv83W61IT/QkoaAS+pk56RXO6Sx/56MKBeMLVPXNrzff85ss73xE3TV7+sngOwtcGskd2piCM4mGxYcOpZMbRjPhcAtI26DCek8BvVEotUUnnL90dpM1N5jVvordNb8c52wzagFBli2Yk5jb20R+800t0nmZoCudpBjeWPv95d+ZrmpoxB9/an5PdJ4qJgk7VSexyBLfhKjFVnSP57j89M2kihYN/6RG6PT46oHT8p3szrJ/CkmOw6/qoSbqj870asCmbtDv1vvz7Vj+2z35wh+zckUaaWP3g2Q8sVTneNsO9lMa2PunedvaJFw5YY9ZBZOArp28r4reiLKtjW88Oyyqf625usDJMsH5wK+/IBiyrMPO57jh87WuXc+9/b0wzPF1Tm+dqBtMMj8zq2Gf81J5y294KyqzDaWo/kcENzLJGZzDKfvWF1CNv5O8WBev4f0LMobNDd41VMai0v4tRcGCfWq9EoXh9JN6nB3b5SpOPU+lY/dg8+6Gpx5kLSuezH1ype6lKWcNcsznIIDbJgN1UY2uKw+1zPwfy+tcth9w6Z21box2N6VFQvnnuin/CTnnC2Mkz29hq5v8uzNyVrOw9MvnnznznGzXNuHM5fOUrY5rRVzO+8KXlWBeA1392v9pW0wxVoPylGfaZHvXpaKxJetp+znif/LT8W37r0OuzHGiFg4RRBYur/w2bSVSyo3dE6D7ijnTSle55OoIfpxnTGcbqxy9/pY68Xf14XHv2Q6dRP/vB8pmy5oUgcImt2LCfiQ7l5S11vq9x8UMfWI7e+tblSLSf39YIx53LMxc1l1fZdpQO7fK4oBSw2+CWSNa2uFFHOxvSTBmzqTVhaiRFZBs7AzQPMT3picvRe97tEfps3TTxasZPl+NPfipWM75/j/znoln5/F9G9+8j5PNo3cpNrDZgi+6+JUztsQ8GV/JVg7bNFPx9HdpRMzp2sB3Yr2OZ0o0zARsOme7oDXQaXTDLbmAvdK7rYodb3zyBdurqBx2YNVmeEeYCiaWzRBTDpsKenab68dmBgxc8fzn/5je7UzPn9INAGuEOnv2s5ehlL403Wp71zLgtj6M8PKSDyXb5b+WCfXUEKz/ybWGWdUoYncP5ggykSrU8z6547sw0g7fSuYA+PvYdzOP/qGmGLgJ9t5HpE7Yi24DtbHiG90mQ4XsGovRnVKlg+8HEbonLFHZ6lkHvGoot+qeP0B2VWrk7NgdKcMqRfHrGG8oK67gKjX5WmrtkN1j98BSETqbO7ynKWP1Q/lFsEYNhhJr01Knr6T8uPs8+4fHx2CYHDuUwQuus4NezeNrtGU/PVQOdznl8c6wyhP2+9W7cU3/Xbpe9yzJjj6LQzdoePhB8p1ARz19/5SvL8V2f97MZftac+loqv6aRtPhCszvRXadhT/UmZlE7nJavkZuEkvg8d2izU+gosckpIK+uNUtJtU63pxanddzH4nsawbfiNAdkRcPPQoSCddxRf/c7v71B5/KzH0+IZz/8gHo+++G7ZtxcyOmADGAicZoP2rhaGqmPr/qZat9O90gsIXL8UFnw+TQDD0GdedKTPQ3xw0ScwgmUqf8oKQzbi9WJCfv4kStg6aQzSQyLCUyDuFDWFI1pGEub1779reXka19T/J3xbMYokzuIXJuoLX0hrANT0pCBRnY4f8mICdQ57bq+poQqS1gpkJmgTtOBn9VFJzv0n07PQ4NRsJ0wGSBBugmmCjZgI/vLfg3Jt/y13E1FlKYTnXvl7cuFN7/JDXyijuubI+lLPPsRj576uQxZ3//my7r6Uc9+RAislFDlq9XsCyM8T85pzsnFJw/vx4uyUy7ng+9Or+mIP9PADQv5ynzVDwZxQFGa/8kfdXZqlDujt0f5Zl62l2H+3LahY8r/PGnnG1A//rFHaF4k4KCLl3YlR1d5zmr6xrMd3D1k/s10pOzWnBm4tBI0TL7ZrwBU5Q5uycTd6BWw5XyyN9qhwTxNqdSh/0wdmjdWSqkpi5yzdlnQs7wj5acr7HWsw1LpsLpw7vbblgt/9IfLOTUuF3tMJ1iT9oJ/PWhDK0Gz+sFNFI1Au89+rKsf8YEX3nwZhbHJrdB4jnlOmINI0xuvGGCbN0Rk1xWlwzIa60ChQ/tAQkdTEaYqZ3lPUPqehtCx84BcmyGJkV5hVm+vpGdVpYpBW7Sk0WV0aqZpagNoi7BJoGO88IXL4R1vWI7e9rbl4EUv9AjNo6ec4fwS8Cg/jWa0RWntkw9ZoddP2JNFKnu4tCGxn4dmyjGN0GuG3byNUcLpiFFsmnCDIykBreyRLVgDQ0+ncS70zr/lTcvFd//xcqhR8YA5quanxz/6YaxFM+Khn6FWP3huwZ/pOm31g6t73v+zE61MwdRIQoSjpjhd03E1ynIRyFKYVzeU9u15fGLOLHvcvfQBpYtTfPeHatDlYOQMkXbK97XMiQwaebgadGJQjbfT/km6BsUf0y6xuHCG1oHKM+QHr3/9csQF8BvfGDddlOf6JQ0U+bYMa+777INBdp0mD37STdDNgSbJGJ1ZKbwXxB9TDp7lKGvOMOUhS8kcBdE6QRmdsik19IXVygzy7+MXGIkvvOPty/k33bkcadSgM/jWtk79fn7557/wGupUUWhuvmTnIs++1Q8ewL/OCslDCpfVsYzwdLJnVk/HSE25vgDUqEsYL8F+61vLMa9rKe3v15GH/IzaN+vg4g1qzem5gKVzePWl2quXs8GQNB2oan8wRCK6pb3tj44zhMQUZx5NL87yHZDnP99TJhvlW3s6y/lLVqwYcYZhqhVZFSXR0VghT0/tG2n6TvBCddXp7R++h76xilYuNqNDx8NJdrqEe6EMKZwapxU8591jSaw93Mn5AXUGRr6jF77A38A794qXx+la/OMf/nC5/IUvLFe++tV4UxzdbgOaAy5vvjCC71v9ABwcJz/5qTu2O6qx2jI1kiufh3dYVeHzwDx6eaiR2uXqNM4SIi/UXuetFHdi6aiTIPdZglHbB4FGdvzg4GP006geJVQ5sXNtl8jbwV11S5AI9Q0zMXHT7gD+0W68hqUpxtlbb1nOPutZcUZhIMBX6pdPPo6Dwf9ha+4bGSciaeW9mNmZaswqw9iK8X3q0MUMai+owNyYCVdsH69rR1VTNZGJLHdoq1E5/R0+59nL+TvuWC68/a0eYYGf5fjy3y+PfuRv/PbFNc0B8Wt0aHYIdAZPP/wNjbb6wXIaMi4OJbv6ne/FKMn8O800wqYK9pQ0HZpvdGiUYhT2i7DseKD5Oc9bn9z3Y4/+fEbMKwXqFAA9Di4uuvz9D25u8Pwy81MdYFVetFhCzObGgHmZocunA7wB7mhndGivSERQ+gxz5AcfiOuNZz4jDkgurunQ+Prb3/nNdz9rPvZrlaf83ZOJzATRcCJjYWavqV6XoFefhwR6dOgv1ggtpqJex+I7EGVqF7MwIrYEDCYn5QUcLJZjCqdRNaJxAci8+YglsIsXvKpx/ANG5y8ulz//eXdW58HGMLJTgDqfpge5+sEplTk0I/bVr319ufS3H/OVvj9D0LLOjZjEQDHCV39Qhg6tBnWnFo9R/4T3CL/z3bggvFVBI/mAjOLLWaYg3OTQn6dIzOlLTjkUvnHA/ATUaN2tXqVp040MjDwKQ1oEB5YvbHVG0YHHQEBn5gznZ601mPjJRy5suWGU+bpvExrbpMt10nm2uez71rfEnM4UeqND140VgoUZRpSJDUo9MOvMshW9owyIN7gc9UofqpPwFaULb32LpxrIGcUuf+FLy+WvfMUvmhqPdfeNNHuc0ZdVDc17/T7hj+71HNyf7eUCzeVKD12mHozA8HjU0swQ2155i2nteI/QfEyGi0OmFgIdkw59zOcKdPr2iwg643iZr3xU7A7DFIiVF1YeWELjIveYZ49D5/fBvnbdn1Pc+F+xzYtf2WaeqjHt0FnNo7QOWH8dlYe+mFKNt1fIF5uyholk7WBo7ZGBwT6l/luu638uHx+N3bVi14Q0Jmbk4MAPpNDRViY0p2qNueBU8sb6sxqNnX/4/Od5RYMn565pNDjRBdcVPvbC2mkt1bE91T6nv5Qr8JY3n+h99K8/sjz6Hz6iqcuX/Q6e3/CwtpW9suLffOETXefPxajLY6dDSRtMsmFOqZ3rj87IjufMzNNZ81YnZVpzfPc3luNvfFMXjD93B5mg8tA/fOlLliMeeHrNa9R5bpUdlYd80177sK8zT5jk0SYFV6nKINa/68XU4iHNlfmKE19vqjOH2uLs054eH5154pM8tx6wmbRl2NgAdm27o9cvy+ZvcCffVt/N3VPvGN42mZxU6Oq9o+w2YGZABxn/CjZnMVvyhABbZQ4ucJoNHUIXS4cvflEsidGZBFYrrnzr28tV3gP85a+mkW7uxDNsVsGq2klcyHEhyTO/1zQX9I4bzipohD145rP8aTB/Huy223xg+SyhMt1pPWqHXWoQ35f7hW0HS7uEi0XNk+kAzPuP77lnufL3f+8Lqr2QHwcveOFyXlOsg5do+qIRnTMEqwDRXlHaXiBSmPaRQrKDTx0zdHvFjkSEyKc/1ZMz2jWdyfxcNGcs5eMXzA54noXv9WnUHuWWnYQ7bxgzbFN/0WHjz4WXDmT65rwdw3erhdSJ0CsXDv7ln9RFoUxYFgpGI0EkZ2bamyEmbMuyIBAjZSaEnQNDDcZc7fC5z1suvvMPlnN8OlZpRjU/1P+JTy5X1bBeB6VD3wCz6ZagDTyVOMmGW+GHm16kTnXnHf6JjKOXvzx+wUo8P3TElEIGPMoyJQGywXfrDp76tOXwhS+wDjxGbT6TcExHkC5LhFwUHj5P1wMcHByodFguLFl2VJozEad1+6Y6jvl0wr5u26xhSE7R2Wlvpdc8GW8A2xeqGmT4aI1/uUAH/ZnDA52Vfu0LxOu/YsUD5W5kpU110YT9Psyu7mZe5SLcr88sBxc05XB/y05XvXygGERDtlUKtSlvTzRffEQ2jCMbiCbFSHj0gucvR7rI4uKNnc7nufjO3OV//GrcHZxrO9tJBCuO6B05+RWIQsJW4fDIT9TxAfYLf/yuCO99z3LhAx9YLv7pn4h+93LEN96erTkloy+5ZIQOjo/EfhYaw17myumKyvc3Rn74Q0+b/Ca2eP4+iGhu7sS6Lm+S3LIc8fY1n97iIpIDt/tfdLo8tQTlgm19C6fxQYnSri1TNw46nR3x/VhnSF9vcBZV/Q9e/rLl7POeIz0uCrMxRxGrQe/ZwQ/gaXg7C6IXBG+mAvuqCHms657f6NpjZw497Xw72aWBcBG+tht5peBbpn/MOITA8gAdbrXBzudGBZ/t8hotp3hWNmhMPnvFRUh2mG25HVVe19nSJAnTqCWaTx346/QJfGCJjc/snnvDG5aLf/bPlosf/ICfhfZcW+Bb1jFqxynZoCOy4xmZebuFTv8bjdo/1lSHO4lAHZqPMfI5BU+B+AAl5WmOeviKly1HzKcv6sChzkb4av9H+5tlBB9u0Bamwqhm6hSiLYJjdVMASkEZudXNDRUeYmKFw/7gJ3c+uWDkVTcXMNuusoEladJkBsZnZCVvbjrtkDoknNzQdOZf6yzy/1Y/OXusDtN2qREVVGgOoZTcU1GyWadc2Ze3cehMLLvotOabKFz105jqCFe/853lmGUiloiaT7UztqdSVLrrYKOywooSMl9UozCSehQqA2TUyOm7Z7fe6geNeGPlPFOiN79ZB+CTtXPVYZmCtEK35XHTxKsrGo0ZzYGnTaqTb8TcfbfX1c3X1INfETjkG3zP1DyVC1RGSv9tscsB2+q6TZIeaP7uyjIG5H1QZxLW/XmDHP9pE51N+Uj8WbWJH17Kawvn3TG4H71GK928F1l8b3sbK5xVQ9OZv6L99lEddGdP2lywYyTZM9vWEdrMZ915a6aMEzdquAINxPxZHZq7g55LsrNZmfiurrR/+rNU/KeBzr4zd2ywP5L7IGYU1cWdn8Srg4dAZ+JiUDR+seZ87i1vXi6854/jbMKTdHTqXkzlJSBgesEzIHwGjCkHPjHC89APB+3Xv6759ve8tu5yePbjtlfkL8/KPqOibQVuVKchsY5Cy5fe3Bi0h6KRjTTLnffrYNR1gVeGxGMA4ucyzqo9lgvaX/i9Yzx9KHIPel/qSru2wv8OphgPaF99W4PQ1x74HR08hnP/ySH+ClTIO7pYSUc5xUwdC8K1aI5sFAXnKDvBMJytCOXlBgXBF18avVhmO77vx8uxjjxOxy3rDsL302hS8ucGOpQPh858wudr89sd/j6FdmbwNDLl7XFG5nOve91yXvNsvmbKwVhTEOC8DgwYsk953ODhDRbWbgF7jIusm25erv3ox/7+HZ3FF2Hicw3hb0trFPR8Gz/T66ABbasok7FvBOpT+pQDPfIEnCIDocnIV2zzya+D7vpvYy7tFR3AIMQXl3jGhgFIIG/9JSNtV/sHf+j4P3hbOJvDKrdP5Z3tLct5+fFEXbPczDToQJutuVEYoZxoRiFHSJ6BLgGySdKCqdqaCu8CcoiLwcNnPNPzMxqRTnTlW9+Kq2k1aO2kUXaYMy+JiR6wbqTptjDYR5MOUJIpB3N1z2fr7KWy+abzFV2UXv363R5h/YCTLuDOvfrVuoh843LEF4c4ENW49oMOoI7rTk35bn/xNQK7Ljkv9sqG5qB81PHk3h/5t2RqBKeTHLAWzzxVtEdluxx+962BfYLJVTp4yQhJwGrFyDyg6xg6kPHbX2P6hUboOpPwOAG38HmKkAtln0kyS0RGeBCY6dwkC1n/WwURB6e2ZzRTvL7cqoHkVWr7P3225vRndap0hTNfx2CV0L2gEEZDqfOF1N9w015swZBjV3OwQ34u+elPC55snKgjX9WV9Ql3pdQx1vLLRlQtsJZW04zaqYXJfelPOin0A/zcKGHVQmVGJ+JW9k+Wq1/5h+XyJz/t6Y9fVVJDHj73Ocu5V77SHZvvMduO9Lmh4ueNc6oy7HvUvhqrIfBlw7eTxed2Obfj/eUnyfnmXP2IEa9/MT1xhb2qQIjDM1C7GbPBnaqbqBZjO8nTP/uUMDWURMin67/UmYqzCKsyHPCcYXjikIFIc2pfGJd+lmU0EnAu5+9GOiBYG98UFUmHfrza8Da1z18+93magjQjVNaNAW/wMZbjWqvsgMvaw5eu1RXCQqqyTb6LYsOpQkf34bN0gcEXL8nLqV6d6piffuBJtOoACdrfHTfTNriBO+OESFe5hKGDLQV3OE0LfNOFg4jTKj8XdvPjfEF36W//zs+S8IEbA/nFCx6tfdubEVq+Ml2iQ9vvAZVF4Vw8ZV1cPnmYYuni0B9ZV+xRXHy/Uc6bN5pHX1eaELfKNRpSXlQmbLXWgBfcGb1NkLcc+4F5ItpG8bXf5V1RLp454H2xHE/lMdf3U4jpz6nWbTP+Jp9Pc8Z8NrsKVdLR2TPLC7lIzbSNW1oaiWiWlTmnowBztFm1Cruc1A4SKKNPrdpp/qFLXWh4Z6hDsLx1onmbH5bfoDqkD4gN9vFA6GdioPyJmgHfHVPZvhAELL2x6iKF4/vvXy7fdddy+e+/EmvK2fHiAk/twVxXp+Nr8ptObVBoGafJ/Bxx7hwXzUYdhrn6z3+xnPzsp7GSIB1feLGjdEpnSZOPtl/4i79YLvzlXyzn3/lO/4LXwoNbLiIKSctrmQ3bNoNyqvHCWKQH1/7KR848nMHytS1PDz1KP9k/fGnssw96ImN8Hn8lL53E1jVD7pCng04dHXpodQXRyfdWdDVUcCPlbWWr2CjtAKZGMQYJBU6tXufV6Py4m70WzajG6HyiTuW5LKMcI8SUf8WNOvV2B26xI6Icd8jfTtMFX/RcOK9OfmW5omkBn+S9+k3N78u/BKMWN394XnisZtAU2MEXpg0O2fTKSx5RilkJechTD6+5A0ZkXXAy7eAu49Gdd7ozu0N/4H3+cVAuGhm1ac4Y8Sgz23/wNqiKl1/QlaeQOhOXM5jq7F844GBGyrRJo7Nv12e9yBv5sLH2HaMS6cKKxphkPSG6GTMpFhonKjNLryrHdu35SkNm0vUb6SCYwxSiPdhweoKf9kR6vw75Cjoba85+o4SbCBzx7tBqNJ32eenVp21l3rb37pRixo06ciFsVMhaaUfRGWupzmVz54+px5FO85pKcDPk0sf/o1dhWAUpOC8rJXRKDgrq0+rsO4d0AHY8ZbPywcUj0xDUmGqxqqNpR4FfMOCF3IPbX6ER+fm+1e5HBF7+8uXChz60nOO9Px6xdX2jzq57Vot9kaTrS7wFvKm98M1tk3yFys+3RvzmCi9PaN/AO8snHLgo5sCibtLvfaOj+8Zm/GV5W8Alj+ux0cEUpURJjNBZZgjyz5nXtOWZLqAPcKRgG85beRo9sg4ieGqQ6NAaobmSpzHEO9Fc7YR5Ghdfmdm2V0On0o8NdFOffD2vGixG2XjY3nbF87MW6tT+8R+BDnf1G9/wjwzxzEaBiyWmIryKxTPY3rm1E0R7/svdyEQdPDy/4bQ69MlPlb9GaCHOYM9Up36uX9/y9EYHCnzmrkdvefNy9KY3Lmef/7y8wZG25Lv9JzZH6HWd6IwLXZaAw1zaZyBusDyi+jFnpl6cRbgoZKWDNiR/63u75ouz9pEdpcTs8twHBsTCzlmbs4I5Az1TL3DiN/0ADJQiVaj8XT853nKB4x+EZ/4s+IKwVhpqlGzYLTdabqei1ZGEuT4zSK9y5eHUz6jLzio+Iy0hpwv+5KxGYU89+Mm39JdPjvlHh7hwwkbrzLyX5zdXLmaHlm3P1/kx+nr+WZ3Rv03ISkeWzXSHZ679c810moIy0GbcgGHqcaj5tU/7GGqVLLKxjLTuwD5KTw3LWpsNyLYfnOILS4p98OCHBiV/aIclSOqKalnEzB5bo80V7ey7QrLjzLJ6OOlDZzpKVq5IIghHyOpMpInqtqYAf+2kxBloyCy0qJWT+oR0wHxGGo1anLKgPafUqHXy23gR09/bsN1Ct1YgBT9HhkSnO6J2u3aC1jb9m5A+xFYgrQ5//L17vOpx6ZOfXC7zuy2f+5wDUyWPXFJ1e3lEvdmrFqyYAN8s4fTNaMxHaKqe6uS++OJg5pTOheETn+ifhzvzhFtCp4GbUHw08ujNb/K6tW/yKF/VgfpWm8OpYN8qpbLtZ+qMepIPvypwMHONwUqMfPRBD5+pBt8XZFpGOm3ZWAIybEteYZJn+fZhjS1LfuRNhLE1CNmhBQnLdhhCJ7QGv6jMHOkoKBkDjWy0KCfSgOCdxdd5OBXnMxGMfr7BwTruDsLaaqEAfy2p0DnVKI8J/GB60d+GYSTiYKOjYBUHFPFdPW6GXPq7jy2XPvI3/jEiHkDyBZN2rEu7zpqyRmeNnv7qEr/Gih/UVRdYJ/z0MReG7gj65wzBDRiPgMrL0hgrHZ6j5ioQ0yGmK3R6gTdKDvmWxm23xe8i5rQDjP22abXibvn2IaII2zajE3PQaeoxPh0mHz1/Ps/S5Wpvymk7p3izcaEwdWBhzZ30xrfYYzMvsOWl3W6wIyrdZEk62pdFPNjuyHlke4dyFU2HflAjNI1GpxhOn1LrU2Bt5d3UudkLUGwAvgKdj094HWiu6k4mG3QyHjBSbIP4RT7t3JOf3a+px5eXK/z+N49YeuWDkStton+OO4t8kowOrVGWotQZmaZcuz9+y7u/aEBnZR7vzmN/OOjXdxZrWZPRnbweGJ6iaQkfYnzOs1V2OxiFbcco7OPv28ejzdI/H4z83AXvYgL8ojNzwOWUI4A16VM1UjYzT2/2uYZfp/m8DzYruOTxBXqhV2ba8Z2sGwMKwcZAjEbBWSng/aR4cFHP/OyIuFCKmxKecuiov/bgQ459kYhtGyOvMqe/+Bf8/UDuuVfqzyAj+ZuNYMWIyDt05zVKU7548XMWOsVyl4+0nMB2ZNFWbWLfoeFbJ2A/6HB8jyPfAGfU5pNi7pT5GpibJXLEAcHb18O5Fb5w1EXn8d13L1f5ljOrKZShC1YuHg+f+ax1CQ0+7Vd/G3v2lyB+Uq5XYWo68qbMddU+4rcPB+jUGpyuayDATpWNlcia+0J0euM//h0Ro6Dg/ZJ/oNOFqFdkt1fKk3srM9hi0qbQaSmiEuxDyocK9no6MWzqP5bD+IpnjoYc+XQeTmecUt0CDbap3MTByHiF7Q/5fqSZpGddOhwXYD7QKJ/nGFg+ZMRkapD6I1/PLnqYy5hRlXcMmRIwB6bO7pS8Ge71XNVXmaKu6TuB6c0wliDNKowuPq9+/RvLlc/e5QtRv/miDhwHjc4CPKHHBSwH2uQgJrbp3WIMMTsfcq2zZHx2gWc6Ep5WsV7PxXPbb0VFvSqRsdA9HHVvmPyHzDD4Lc/ZoCUyEXQg1Nla7tQemL3KrJc2BlcElXKgoq5sxH44h9GZo1tpH/l8df+ypht0HkYZAjJs7cHq836M+jVUqkajIafz3ar5KO8zMicUvIzHKgZr03Syx0QvS/Y1neLrp7zSxc0j1182/QYLz4VMNtMfk9FGHW4fVlh+9jOvhR//41d9YHgJTe3Eq1K880dwm57SNqO+jvfojHwZly/NJ6+fc61QONS06iZNHxmc2n5zqOIiilibGMEzkVipxIYRvVHMHUUVmfEwawpFh5bD+UuQohS7cZKx2unOpg4NXiMygekG82dGQo5uV1ylsNOY1kjfH1jkVSY6vnQowUWBbFiA/cFvGDtug8qJ3KdC59cpSyPbAW818/wEIylzWy7cuNnB8ho7qcF5FaJ8Wojy0rrTynLzzV6F4FFQP5EGXx3h+J4fLL5BsQPlp26bsgyW+X71q/idRdaCNUr6p5G5FS34Wx/ciOFWueezsoMT2Qx9n+CHy3Hwv4PbbPAzsEqT+83PkNA2XE8QEl6nZ/mOD9SkjnUZsduFIsAkhbmsLNkaTlN+RA4WhE5Q8ZdJo1QP/rcf+pMPP/rFL4lEQWouadINUWw2SMbgBxEmkvZWODi7nHvxi5eLf/CO5cIb71jOv/51y4XXvXa5oPj8ba/wjRW/wSEwF6QTnHvJi5fz/E73a1+7HPHdiyfemuu78fXPfSj/96NkVH2jq4Zkh/A5Ab4Hwkdu2CkeDX/60+XSpz+znPDDlay8qOzTyjG3yTgID1/x8uU8X/J85e1O+y1wftH2U5+O397Wadvt6wyiVO6R/OB3XDgAql0A8+3jb35zucqPh2pkpiqsajBF4qAhP2vYrJz4F8I8x81esXF5JG9UF01b/N0RtcfRO//AvzLr8ErC7cvBc58TF7kJfxGK72Pr4EXv4LbbPJ/3V16ZFnGRm8WNOoMiBysIbxtvkBt4f2jwc4d+5AtfCkZWrHbWqGfG252YWqu8CGC2NnQUaF0oXNBOffxf/sVy8W1vWy7c+cblvDr0+VeoM6sB2NEoEh884Ql+Sfb8q1+lzvwaBx7TZEdf0YWQbymroWd3SBBixAU10KyYElEeCiiq07AsxkchOYD4dAFynsnmEdbLn/msXzSIvqE8/l/tmRWbtWAFdvD5t7/NLwH4c2bicUHH8yD87rYvCHVGCp8jH9/eO9RBcO6OO1xnH7yy6Xn3Pfe4M/sDOQ884IPQb53zHWreHBE4YPxiq84AXnHZbQgD/6mOaeQjkTHZuNB8/guWcxqIzv9nfzZ3aL57TWdO29xU8cHFz3Pcfrt1Dm673eXzK7QLvuiMt555sv0LOy6mXaL0Df047zm3Y/spvi+8g1PghE75ZFA2N4QFgWA7hLEQQq/5AlM2s2Wb05anECpYO4rg01QfbfGeEVB878xNqOUo1MqdQKRu1ECTiAaAkHNMcbhbycM/516jjqfYEN9Lcv/wj3Hzoz6Rq4wb064j9Y82k1Sx66lT/9Er+O2VZ4WibF6TzWPZ5HlvlgJdp2FQ+dWJzvCRmz46k08+sObNt/088uo0zp06pkJ+DzLhtuLJt2wv+0TzbFAdYwXpDY+6sH800OzsCwah7b5jH/d9x7Rn7OOqJHHS1V4kXXTpJHvwA72PNVWbQTK8sZqZmaEiadoGMugUdMNDpyGydB3tEx2dfg6ANVQepNcR69GEC4syoB3HvBX+CXL0+C4dd9S4MyV51aTqQ9bKTlQBVAzC5+CYzky+06Y589Htt7kz+/Yyo+HPf75c/c63lyv86Dsdxq0b2SJQ77AxAb7y85rWkUZ7Hizyt+HolDq7HN9373KVrxFxIZf5bc+UyqBT0KnpzJTJRalG46sa0X1wsTLCSIeMsmjDWg8W3KE0ZasLbWx6X+xxdaDXo2iyYt8PUGnuzn7L4Ie3uE+AHwXV2StTtY/RYWkPPaYaZddx0N6STtHQoXDIJjLwKeH2n6XVoYPpbZcPes5WqdqZYVa0C4OnULJ0AF125pXvf3+5+u3vLJc1DyRc0WnxhCfL6Kg4qIrTEFc1X+VLSZe/+a34YhKfpOIiqHbkhPIjQdlZvm0WvYG5yJjmaA56XvPEQz49ppGVcq7w2pXKv/oDnbqZ/6nc6QyQ2LFPWno81nnujtfH58zUyVgt4Vlnvh3tumCzQ9lsiaU2bi/zcJZGYtaquYC8/NnP+bNifkbEB7ZA/Uj31QZN7xjhfTGGz8n2PuIf/xxSIJh03dZpSOn6y1D3/9yfBDvRGYJw/N3v+dqinxnc6X/xS19rWDf1r7EKQ6d2u6Sy0RzoaOwgu96e9meTbM2hP/Thhz//xdhRWfk5O/ykXeGElCpdp+/IV8obfZE8Zsnjlpe/fvfCj33ykPyxdiwrGEf5IUMaiE8WPPzv/v3y6Cc+6Z8/vsyrT1/9Rx8Ix9wZa7d1DcqfixqoerEDZ39Wmt84ZD7Pd6hZ5fCFmzrSox/92+WKyh4rCD2/UKYJ7CvDO03+aETmtawLb3tr/LItdZPNq19RPf7hH/wAU/gWDzyWn8Sun78NIp46Np8/u8Kvu+b3sLcH0JlzmnPrIuzc61/vtA+G3/7OS3p+XYrlT+8QixVBrOkt7APtlWnmvddZWVEHvSqbXirUgcVBxJmA2/mAjstZ5Cq+qk+dyF8HdWryx40iKWZd7UC2V4Ayk5+9ybDcGSfJyGYocV7T2J4PVHKKMxFH9iZN7L/ASqV8CDRCa8S5qpHminZQjNAafdVIx3yFX42Ofq2zXv3xT3Ra/p5GSI3iXNVrhPZFGY041UQ0xazFTggf9giT72WuW2/xlMMdTyMpnZm5MyNpdeYbYTLvxHX/QJF/DUujs5e46GS/1AUmPwr/k7y49O6Z4TZQB2KN+vLHPrY8+j//z4o/7i+l8qEaL5U5X+T1dt0MjBTELHLR4XJ3vEHs0bHwh7MEdyYZnb8bI/Q1nWndSTk7JJhCsZR4IlmM5IzS31Pen7n+nHnohS6fdpoaDpSjWz7YVGKDkrYZvYsJcgNzU9Q7LOipaITU2aPPjuJhHj+/wMNHv3tgOeEhfn4WgqlEnUaxw7yRhuRj5egyn2bJrOuMaiRGURt+AypuzMIB34t+cnwtlLtc6uC8XHD8o3t9muWMwQE0H0QFRrKkUse7S6Mu7wH6kViN1HHmyV9rZerEZwCYDgjNE8HeaS6qi1GVzcUfnfnKFzXacQOGNtq6QZnY6hdndEKN8qzlj6pmvtpHlLPTn04Dc2OmDPxuzQPMixVrWuh90duF+TPTJO0zVmCsR/BTebHfepGmlR0LFQZaYuJv0QxStzGHhk8Fa2djxFynQ16YOoQQR9su35mKVTJf0ct6vYbExQKnRGKLc4WDJ/B42MW60iNAjwYs4xlgpwg/tq4A81CVDWirsM7KW8ttLfXaAzpd84NErJ2yM5MPeh33tcN11Y8rez+E9MQnuj7ANrkzyI9b6kD1CkVVBZRDCoPNLXfK3x7Em3K9AqGLyAHy8JsxtGnqVpbc06Z9+LlcglkGOkOvMrLfWCpl/yj4mWcemOovK/AAF3cPKXfPfqsiRv0ARez7K2Vh2+bZCs67NeaPNTo4T2UMo4NKWVTe7FbIqpfEDmwjaWCXqpI6qq/VLVR2nEYb7hyefVy8zjPlzEapUAg6ufarSztSs4vV4MybvQqR8GjKGyf8PBw7B54y9YbdC8l9MN5y63Lw7Od4CmM2F4Oay17VKdirOpOd9Mlboe14A13KNgktgraDSNorGnmbHvipwEfruZM6GPA/yUS1bd92rJy11/j7IhBqN599NPAM8OAW5XJAbQtzruB1ibklqpCYWbuUU2MTtYnhI6Xlw1SAsTaGs2X9TJcO5KoUsg06p2gf0ZpKXKNDKz8XZP4sAM8k0KHVyXcah2TnOZ1hIBI77Ey5TwA6NDuGx0UTvlrXxdc1zfv6iw1bTH5Bc0Ce04UJP5/8bH7UPn6CwnNiTTOu8qkv1dej1h7s83NFpHfalTOC/b8pGZQXr3XFNE76I0vaIEpeTaWGygYTf+3X0aFZ6+ZWPpBRyvOdVA8CWdagBCci1U2BoQOU2Mr3Y81V1Fl2SuyYZGV6VQ1QQPoScS+xKQ9b/s+/ylggrwJ85sXXGAndeRihD5ezFy56LdiL8nm6tVXph2+kVgfYJ5ZHyttCpVYZYfWJvB5VWbNN+AKVi512yl6PAFiR31OXtOwtPNnhjqOfpeARTnRVN5YmeR4k5sHhB6ZbbmOt44x17iuQsdI1UjL/L1zWWY95LHNapi1mRpmmipSg2mEHyQ61/EvfbICBh7Mo5cKnXhystFvuMzCKwh75CGVHoeSEILRRsDq8gZYaeaP9yy/y7AwVMAOhQN5IJUyEAWi0QnPFrBuwflAkklbdmXLwgE0+zO7PzzLlYPmMo7/ZKFTVEFUAwV8zdFlgwxHZXGmI+oXPqbBf0Y1qpJx5vw9GPsmg0ZqDlPV3nln23LkO0NL3dg8kRqWKzciAHu2pubg/9MJTfAlfwFGeVxZUngtphrbGEus+EqpaEa2AcXQunupjDq3BwE5SpgYn1tY5iDDgNswsBnpTGdFxVzkhdcjbdE2vSSOSOBp7gVcFNx06VThKjEiH3TiaDNIKdjhUlBQRtmeYncxUtm+Zj07MCM1Fk9dLOR1z2mYnMTcEzfRqPg0Qydi2WGMUsnFr1E+Qii9mxiesJObihx3VnhBzMUHuh1Svo8+tfb8coLMLqw+yy9JffImpjfjC2s4zYHdJ5FhHs4LbnCkTF5+cDRI8esvNGH9/ro2Wq6XsLFPxkdjXcbZnB86cZ/3D/Pnss3g+iHTA+sx2g2ma4QpOhY8iiafcrb1MbfKRCk5sR4fuhtxRkx4QY4cnYMaNUDEkUXdEdB5Doh05uBQ5SEMcs0RW82h1jIMnMOpoFKBjoZv2iExRsWAJmyPdBSQyg+WirWNbqQOPT41d0c4vMAXhNM43OHK+i3azatjeCJLTuXRWOdDByHfpDJ61YP2YZa7tTiTfDWiXqTyVC575w4xkrNLwUD/vKQLyaoA4+bUOIl4caEt3ZGuWYY2oAx18cEb/pwGg0dcPIfFAGReEtA9lcrubt4xqaTWdHHagK2S6UC5MXPIjyGiAvMmPdopctqug87vTgpL8o0Qm05GG0DZkoekAhsFkVBoMW0kPQFZSnZdb3dwx9LcwmLeyk3iCjN/n5htuVM62Mg9wohlKMlLJG8j02hOE1FTjey2ct7QT/k4Ib31wSs0dFuVv7W4gXU+XGC1rGU32/T24ukU8+SB0k6NOAadcbqRLFmo68HlGnBUav0musxm6GiH9cZ4HY8mxY7a8xS5vh0PBdFbuDuqi1z+MpBEaH92ZWXtmWmUHe/5NnYXeljvlGPvkql9EDmU15LH1nUKrOR1MkFmNEEV6xxFvwnSJnLfVofKMOP+spKt0P7vBF4gYxdgJ3OxgyvGkJ6pzPM6ntcgb+SsqdF+3stMQ1rRlBOWLmtoZBV/UcSueeSmnVKHM9vrvgBUHXuPX6D7ySZ96cZPIOW+UH1i8rwMkUZ54pOTXaJ8RUw6W7TQae1nwwQeyLdeRckWlVfvHcGUCugrkoX7TT1Fon13XlNHTRqYe6vT16tw0XUkMD4YDadzkSkOuPhYxGIlu3+8UEkcHSzP2MdTgpIGWb+1ca65COYBOyBSUt7S2+h6htROOfxwdmnm0T928OcK3KPiMLIv6treiytkBZaHrkAwF++yQeUPotVpudvjjjMlj/n704hfFU3e6mr821nIDq+0NGKG5KOSxT51lDHRZwWEVABpWSAa6rV2znbPWhU7DT0L4Bz95T1F+ekWDu7A5xYmPwETOFXMJUZcIq2jNZI/ho6MoLnrjUQE/QgpfdfMzJgwKZYcA0lTYj1Ciga4PUrW8GL5ZJ+tfdpC1zPSUJIUknb+xV52Vucqzs1gWoedl9hzsPRVJDnNnTvvHP//5ckKj6Iiisdypn5pfVII3qig0MpDWHSEMhaj4bsldfsIteJ4S420Y7Rwudvwzbc97nke/uMjZ2thjk5GAkZkdXReUlH9FnZkLXqeDdyPUDlvLiHjwCSqH50SOXvbSOIsxNeICu77fzKoR04NRT0cbrMz0Nll7+PBkhKU6T3FoF11r+HluzkAsSWofeopGplH9aP9hJ0fugf2OGSVZ81YsYmsnsT6ctMduL2ulO7PKoKFNJCqxLVR8RBlCSweErv5ZuuOBJC5mzGWH3XLLcvhc5mqaR9NQe2AbYUhIgmJ7ncUOMrdNxkUTc3cOJh5G4pTJhSij89FLX+obJHHhE/p7VyZa5X1LmE7d9ejMNZ+tck/ZkT1bqBQj9TOf31Pki6Q6k/g6Q3yvd6tj8ZMRXm1A1QYh1n1EXHTYz5BFrTIQ/DrAznDBy3MvLNuxds+yK9cgPCL6u/gh06pEmluxp+2mohp282b8GIhb38MqlV6LoHySwVn5weS4Y/BiG6Ulu9EkQq8cIhWcUIwjWLF2+tUf/sC3nAvcOj6nEeiAxtMp3DdeCplvi87tdcnSHFxmynQ4+Qxx/NOfLpd5vSsv3rjgOveqVy5HL3+Z54yeEzI37DZFlv8D6PWDDyXyMcpLlM0wYWsTExG0abKyBXhp4PAFL4wHoFjvdsf67cIv1vaHn5RJQec22dqaC8AIZtSljaaCOWQiaOrH6HzAqkoOMl4i1CB0cr8OJC4KW4fuZZlkY1PeOGGfkAHxih461uvkhu+/FaPlYaaOYqdGXDlIw0ouDLap1xBChxCFra42VBKcuq7yg/L5MDg7jlWOcy95iR/D9CiEHnYqI1GRisuc/RmFVdypFeZp9ORD41e+fnc8ZacdwxmCF3d5r/HiW94cj4HSSXol0mJ1AKdcdp9zS8pOzinI8F2INon0TFdI7WCbycUfr3Odu/NOv3fotWD1Cnfm73x34Ze0/MirfPXDT5m3bJ6G7pczkcw89ouXBrhY1jTsDM8/Z1tQ7skP7vEoXXdBrU9+ULFAGVWOt6ilU2yD2kWqBCY6Ey1zH0piWzqK3aCZZscUrxBUbs2fj+4QTVpFBDlsqRxNO45/dn9MO3Iuy2rDkUaic8997nKg+XSV0c0YLhRmlh9kw5bPuOxkQjtGF1JXv/1d/0gRr16xY1y+Og0P/h+9RBdfba23ME1B4HMhxhSjdCT28ymcYcSKsOYH3cZWBoIjHR0YPBl4TgcZv5XIdMOjJBe2P/3ZcuUf/zEOyIce9B1X8kReFxqxQhTHvg2psZ8McFbgmoZnvF+Yv4OjvJTLfJ3fkYzHSdec1XENka2VRn2tsSls6EFUOFUJRKI03KGnwidIWf/I43ZmoeujsKata/2mI5LbkklOMnSDUKd65NHlWCP0pW9928tctDx3pc7xSjzfayvdcGtFLwsgnBRGToPyu4ovZDhl//x+v0Vz5bvfi/Vw6Xna8+pXLxf/8A+Xc7fd5lUPl5enfmyVbX9wXDvZN4hS7t7DzSHybRDTgBzRErmvB+iS/maIaC5QeXv8wgfe799y9Glf5cTo/J3lyhe+uMSP48fgM2HYncub0QpP0pH0/cDY058ev2fO2Qo2c3ZNEU/4np+mHhxc2wv38HxtIzCX3/SFITExywxYszFHsOnMY4SOQkLonVSF9swJRKu8FMjTkuVM6Tokw1vFq4q3nsvqooY3WbyOqjxcoB295MX+yTc/4knnEz9MkjNyF3pqkvTEpp3Cig4olU9nvnL3N/xmDQ9OMT9l6nP+da9bLrz9bct5fuubEYpOSqdnVLIfRJor68ziT+G2Ds00wUtciTFCuR6rY2tnTr4f0r/macWhzlTn+abJ296q9nhJrHULzPl5TYyfnPMnwfK034EpF+Oi1vJoiJVPvMrWttU+0PTCP1nNl580f/Y7l0zT1Jmv8VPPXMhzW1/l0o6Fqpu3zfYM8ZFVCE4E88xaZY3VQbkPazBpHzxPxdYWxd9rQUAeeSpT2mn6kBXYdtkWnMKOdQq7zLuDmnbwDiKna77JccSnYjWX5l276CxpseyVD2JAOWXZ6ptVKikgXt2RQHlZJaBDX/7Sl72Ux0Hmg0oH1AWd5m969x8vR3xvAl9YTvQBpn98OlGHvqwOzdmlng1RoX6IB12S3YGG3oS+gKRi3Ki5eJPvyp17w+s99SHmhhPt4vX7e+/zJ3yvfuOb8XCQ/HCd3DAVAsE3aYwmY0P1oSsBbVL0ec3bn/lM15u1b9dZB45fhr3vx8tSb+OTrdkHPgvpb8POEmb1oksGhg8gnIPwXymyMPGIDrDvP/iAOrQ7R4MbMukG2KOD76Dzgx6dvYG0fUuB7Q0lCST0Trrv3uUKnVojDjw+vHKki5EL7EzuTm18xsRe31yPlT8ofHOmVMmyHYt39Z57loc/8hG/yMu8PlTO+M1wRsjH/eWfLze9973+TXLvYMn8UL0alQvaE15V4gPmzqZ5b37Z/saIsr0/dGAzDTqjOTud6MJ7373c/L/6C42QL/O83v5z8OsC8NJf//VyhfcNNQB45CcgxxfWiNtDV0bVU2HbZiWxI44i5m0eLgYpn9vdtD9nIaYaJ/fdJ+3ssOiHgRVzEQH8S9JIv8eZC5apxwDFKc9Dqut31W/+b2qPg//1e9/74Uc1GoUxDIfuGEkGK9NClivgRJITDTJXMr1dN51UlITgp960I3gc8pCfH9ap1nNcgc7BHNvPDWjOZtu9UJKOk5etNvtVDRbMVSYiE3QWf1mf1RaP0Lqo4xkNjbQcXH7TWfNZfwOv3kWkA2lO6devuHB7xSvitS7tfM9xdbFGB8xiK1qh/F5JUL05ePlsGNObC29+ky8CfZNHZXsEfvBB/0Dn5c/dtVy56wux7sy8PcGSIx2faQJnFz8wlHWr/TEax5i9GSoiOLMc8Wm0N97hdXle9fIb5arLFT6PpjMEbeTmi81emD0MC50WVr+EOtCSN2maF4HtgdI/V/lf0ej8H9QOB//5e973YT4VsBawZo8Ok3TbgqEu3l7avSZzKYriM5GNif3Vd5QU6Bg0kDoxDwid1/yZCyp/tFEd55g7eqx7/vJX1rE5Iwin2diunYAI+0IWN/xZ8wMlSNNp5AOrHf7wunw6e7NGWXzgal8XYwdPe6qmIS+Iz5gxn+WqlymSdLzcyLTk1ltVoEYj8Xmf8Cqv/ruYKlux5qfYpG4cHHyCjO/gnX/rW5YLCqyF8/vnfghIB1p8o+Oe5dLHP+mLQGj/nIV9V63O6oymKQmf7uUuIgcYKzhefZEvFDn1l9EglSBmK1oHw9knPmm58J53x08/q17ghDMovy3zD/+4XP+19oMw9i8ocjUXdQXimZ3plit45RxoOsUddgQoOvT92ldf0zXXF3/3wHLwLz74QX+Xw1IJncG0QlqBdGwCnSxX8VQRI9KlO+iohdOgyFGe5IMmqdHu8Kka6bRj6EDu0OrYnMr9vTnN31JVCJ8CQazbcBR5VidkrdxJxyS0EnQgjYZ8FMZru+LxJgqjHh3Mj26qMx/qIpGfdT581rN804HOybf5/GoXHVEHCB+K4ZsWY4dxMPqpQu6GPsff1Ligi76L73qXOvTrfc3gh464+MQXHVRemvviF5dL/+FvvETHF5TOyLblWTumBEevec1y8YPvX85phMcGB5Sfx+aMQ6VRj03Uk4BftpOQXeriM8Xb3+6PMrr9merw+YlPfGK59pMfxz2DbDuQtcsimr0GaafCfuzklW/4CSd3TwCXFRGOxLxPZ+2Df/EBPjTzeWdIU0ZkN5FREGFslQ29hirc2OoMb5JsutG4pmIdmpFQ80g/ysnjkWpQdjC//c3FkL88xKk684Wd2EYamrDZWYlWcmwVDRcKdGpeEeN1fB780SjgMjUSjs/8MhXRPNnTkKc/1SNqfV/a0yXtEP9C7P33x/Mpz9FFHl8kfd1rl3OMxgrnXvsajagvc+dmVPTvznAwcKaoC9XPflaj8pf8XWimMf7wYasXz2/zwcbzb3rjcp6bQbSbpjBuO9nx6gurR2RxtrZnMu2OTVBbs5py7h3viLk70yfxeWaD3zy/ctfnx9qzf9hpD6JPnY7T5MHVtom3uj3FhPQmTYUez1TwX3zwQx9+iA5tA6k2InhJ94YzGbLWJDOk1CWVnxiK4KMttby1LNLxQRWI6zFK33Lrcpa5oTo5D7CzGuKnyjSSp0PG7GfRxHGUb9G93BHzlB9gGsRIrU7Jl5+8NCbUh729rKUzCJ2Vg88/vyY/4YeiDlD7qVMkKxaaX3ta8ZY3xad7NT054uYRI7LsuGXogOowfPCGL43yOd/Ln/nMcvV73/Vas9e8cbjVkakLt+pZNz+6TXN4zmo6S5x96tPCh0d4mz1G9co/qmyCTfCZXhzprHH+XX+kawKddRidNRozbbqqay5+DsN2yMKGnWlyWJzoNLuWl5j0MwRm5b37LnlMO+jQL9I1g0boD374IR1tUVpWMPMS4WdldFxM0qkY4qALk6OmuRZWPNhzY5KyWZiklYen1HhYnZsqB5oX+k0QOpCc5wLNLwUwcl5tX1NKW4XVDQuKGmECyuzopC23ojYEluXUKfi2M58r44tPXpHgolGjg0dj/Ct955cddWzm01xUndcpvEZif6lJ9aCzDH11Es+Tf/ij5crXvqa58sfdmVnJ4JnjcUbaAr+Zfly/pgNLZzUewKdDMz1SoP3wzWcZnrngApZ0ZrfJ6uSad/ORST4tfKQLUvJzELPefPmTn/YF6XUNKFyk0z7YiDpjo4wFxr5YWSsvMVJ76mUO/NwvYz8LQ5YxF83q0B9Qh/5CSEMjIlC6EINet2BUpAH9tdwmNLkrS3Yi5Wy4kGHpiRFQI80R31fmTRB1LG56XP7GN/29C19ESj1MDAJLRQSdyS2K7X0RpBDU6ivQBR43O1jv5QtQvMmteSxP6vm9QTqK5vjuSIzOlVkxnYJTvwPTCXToyDogGP1ZvfHKgUZjvpjEr2px19KfDuNTWrxR41vLGw+bgwwJ9agqbVI/l+eVGZXnWFMQ3/zh8xGqQ+TPlrJ5HZAXL8RBp9H+8AXPR7JcY/6ui8Crn/tcrmzkdGcUH4S3gweZCd8qboKGidvqUzhNvuVTx4P/IkfoPqoMJ4RxRBDFQZJqTafRKyluo2e0HCa6rlI9oQ5ER2HnHDHqqEPzk8k8yHRJIxgXiLFsFHnC3Jp/lKRo2M2RqLBSqWPZugOa6kgwf6dDMwXh5gKf+fJ3mtVZPFL7hdi4YLM1Rk+mKp7LPhovM6he/uXZH7ECcnd8+uuuu5YrdOSv3e3v+fkj4ZwFavqygd3lz37F1IZPp3lqwXSDoPkvBw9r5kyH0ON3ulnus49qD2y4xrJz9pw6P9cCzMGf/CQfHMc6sC7/x08sx9/4RpwpDvJWfpbfkU1kZO2HbWNtWmP4PugZYSHQ5YOP/+JPHVocKaSyo+bmYK/yoHLraJVFlESiHHHcOtTgeyuY6DyWvfIFVnUKOsylr3xlefDf/399AyTeBYwdgj5N5w6V5YwGUJTUkAU5uJk/4om/kgEYBD65oD9esPU0QaPY8Q/UOXnqjRsO6ri+MFQWv7j6y1/5APAvAqjzXtKc+NJnPrtc1jXMFb5Kqos936jgeQw6MW+9UBdCQ/cn6JXhCzTm/A8/HBeOUuD3C/nWiS9gmX6wdi7aB1aufri+ZVhnGfL6l784AHXg8bHIK5/+dPDcrhS2lls+eNvZiak/QFZDN+CDbUfCPHBaXwJQBJvjHsDo0EASZ079rRMjvaoI4jY1Q4z98sY3Eamtg92gKT8jcezVDZ7Gu6KpxhWdnv0AEyOflM5wtc3O0oXVhde8ejl88lPcKTx6ozPKcjTQyy6kprcde1RDTTuB5SyPvnQkdW7/sI+mIozePMHHfJjnLRzzo/fq1Md8pVMdmIvN64zuqo+nDBxsKsxzVFfOJe1F+NQVRJOfTq2DiE8ZYNNzdR4wYkWG6Q5TEX6iWTIu9vxSLcbi3x+rcYf/za/jDKT25iwU7b1nn6cPE3tHB9aGuUcHmL1byMCQlA4+qUOf+clf/bfXf/p//D+to5plGesvThbBizRYRz5zh/UVUyedFLp+10nC8q5fMm1E+NRLozJX9ciFMLxihYEn8x6nK3M61iXmocyzf/sbd7joIGGPHOSkLPY/KL5pb7yNDhKcXZ3Gt57nuQryDV85yIYdzjDWiVUGP9GXcJ0VeJEgtc2r29PbNikEe7+MTu27mrr2uPi+97S7fbGezFdWvRT4qU/7LOHrFZXnUZ56YJZ6KNiPcUEa5c0uJU/BZ8lKWSnqAIo/dE6rlzfaVlaRZQrWyGUdcRT7SwH75tAFF2oegUxmKxrEhl4x74Cu0+kk2DpKmcsNyvrFFrzcZF+QSEAnUeMfaMdd1A57/J//2XLxda/z7ePDZz7dUxLmq35oH6MO/GOUELaCF0kw+U9ZyJNFFGTwnXA+EdaNGLjT+gBUTMB/1wGV1Gt5ItcK+IQ4zW+lIXdn2+StfP6AIvXX2Y2OfKjO7QtSHWg+o3n148DzYr/kyto+F4YuSwFXK5gHsqxMZvEDIVXQf5d1vu0TbNfilAcsR+bEUEEw0QPwY8rBKkebQzcdsOVF2ttIT/qRCN4qWHWUr9GFaLzALh3plRstYBEj3dE5L3/d9JY3Lzdxp+0Nr8/lsJt8c4DPI3BDg/lrPwuBQRbRGtBlONGx7p2+3ewVqRQ/QWfc7vUNdvJs8FhysKo0XVxjZYabQ55+nLL6oekHUxPr6OzmenQ7oCVL1mo+yQfk1M4Ch+nkB7mDYGm7RwbCRBNCUxds+ghX4M8ebiHeWoHQLdQpka1lxI66ThJoNLpQNkDQWdbKHtoRawuhDspzC+dfedvyuPe+e7npzXd62sHI46WpR/kUVpzWsRu2K8BzFDCtzWijLgSZzkyrtCjFrX3hrjozXdjq/L7o7QWqs2/YAWQacemkVzWXf/Qjf+MLUv+GISsymhYdPO+5y/l3/sFy/h1vj3coNc92HrxrddpipzirzxmcYtOVoRV28jdY1k1RuVbBQW0qHSM08yeOJCzwXz0fXbOCP6ykGAzdEQUB22XZLlAiy4g8u6fRICMNDUWjNpXQx7Bi5kw3venO5Qn/7E+XC69+VTxHoU7Or23xksDDH/3o8ig/tKMLSZ/uuV2NVUxgKyzO2yAqMrK4gIghM59UhdVqx8g7QBusubaoNuntQ1wduXj70GXWV9oc+Lru8EUrb2crvbP6wZntHD82yi8n1LMfaVP/UzsMRF28n1BCvmkGk1Ky+6myV2cIdxG1CHlSYaIcUpzLduuUI/ihnmqQGQ2OdStV9qy4T1comyu9IpIlcyTIwqy22qzVjCc/abn5rW9dbtaocvH1r4vbxppicMPl0le/tjzy6c8sj/BjmfxS06O1LBUmunHbHaLkz1GTC1vHhG2dmraxJ4uZ+9ig7O3aDZzG34dQ1QaCDqkD2zeGdlY/mIKw+qHTNqsffGPaz37k6kd6uxa98qJrBSbfJnKtr+MmA1NrbGSg9tM+mK1yPX0yB3/y6K/t6mKgc7Z2nb3Jd3N3hHaEQtFYJnRZlGab6SO3kc+/4uXL4979ruUm3n7OacaJLn644fLIJz+1PPppXb3nF/NtT2YYsTxqcTOhYa7PWg5YqcCsG7BvTcA+bX1gRd/ZrYz/pbDt6E5SjOuMj2JoKsHz5CwbXvrbv/PNHD+fwrKjBgQ/a8Jjq297m+8WLhrBne9Uf29Uj9kfUC519M7c9/NjdfJCnbmAR+gHP3dXNIYCMQo9fx0doZPMBKbgR+HRlUcaVrANskechIURRf5OK5PtJJNlJPnFreOb7nzjcuuf//lykWeF+ayrphLsEKYZD/3NR5dHPvUZXQze52lGleVKs9MUl4/DISNLIiK0bwCgS/ZJXQgbmUjMSfnfGC43yGEzsE4tnGEVCMEPMRtClyMLnQ6zpMYLE+6ssmm9ujDmGoPb97/5zf7VD53x/CkE/wCQph+Xr0Q7U378hxsmMElds+9gX//RZqkgFL+xJhsg9njobWUdZk+GlNTF7cF/8X516LvusrAXPkHsfbLgVacTkjCn0w1hZpUDdPbaz5iWOatGPtQc+aa3vGm5WRcwN93xhmx0jTgPP7Jc+vrd6sifXh5W8FstdfcLMHc+f2E5zzc+yMNSHzcwWCVBJ9WIhn8TWlrkmkpqoz4lb1SvCeKmYJ98X/tsMenQm7jg46WBfMEYqW+2pJ6nH6etfjD1IPazH5p7c/OFu7LOu5Zjat1kPPfE2fUpMWdtiGK0OaVTD1bVRfHcoVuubeNVavCzkOqIMeYFSgdZYbKX+YpuWVOvGKFjljY8WH/h9tuWJ3zog+rMdyxHvCnCBeCDDy5X771veehjH/ecmd8/9EhMRgIHw003+aMxN+lAONIplSLYidbLVRCXF0UGlDf8JCiD7a3kikiYl65PchJ0roGmP2Fl7MoCUzsmtjyn1C5+s0ad+dxtL18uvPEOf2CRTssvvboABfLSDv55vRs9+4H/6vjXfvkL35F1upVrauMH6L7NYhLVJviR5AbOX6pNZ90vRBFz0yzWodsIvepFFlPmR2pqvCTpzMV3rkllTQydwWqKwrCtKDXdcPD5+DmrGbf+Z3+2XOT9Op7PHasZ39Q04289Ml+991530nisMazwUNC5F7xgufkP37k8/j3vXi688pXLuec9N+6WsTN/zc8yR+PO/itVtIiahoWfQ6m1deiPPKHtOoxgKLZeyiMxkaeh2ghTk17ZDtPumHwq7OIf/9Fyge+JvEFnM53duBjksVcfxNTZ5SowUrP6wXMdSvMbi/42dk0/WD06z+oHz378NlY/pIc/lEfpmFlhLxQsgWHdotcMrY2NKYG0iGHKPNIO634xmw79z0eHRu4NYgNqpJI/DCamQhPV8EOWKD4IsqdnXXYSD/Qfao5889vfujzeN01etxzWasYjjyyP/uNXPV9+WCMzz3jQ4GE4bLFlxLn42tcsj9POPffiF8vek/wRSE7FxLyN7f7Asp4OhvhpijpIFeLfqLpXmmwg0sUNOMVI6Rds8/StUdPvEMo2B9qcQxC/82b7ha4jjezMdDzemjl6/vOWc69/3XLxHW/3ywN8GIblOK49/MIAn1rjQpnb3NSRgI1c/fCzH6xP06GZfoxnP1j94M2XfPajVj/sTHhEcgWJlTFkuGu6M5CvultYdCO5N2qX6NDv//AD6tAYrLAFHPuRsq4z7YJOYgsGvA2/agU52So6dxIPGF247RXLLX/6IU0zXr8c8bKoOolXM5hmfPTvPM3gS0v+HWnbTBs5P+YVrguvvH25yafdx8dO0o4/1Kn0UPbo2EbtVPLVadUdBmGzK0CaDZ2xmQM6IKTgTnDrLfGuIa9lMdJp+oNtOk/PUahyyn6h68YdNgoQl6mBOh1vlRy+8PnuxBf5II46NBd6fnPGmc74s13HP7pvOfnVr312oixMxH5S4IzFx9I1LeH3zz0FeWL89nm9+YIuB4Q/l+Z2wrYLcMDMzAvMfGtqC2MF/tDs9skZVmzThbADoZh1aI/QbZWjlWmiMkRhNXJFulA6O9OPhm5HGxitPk2mDkWtGA1u1jTjiX/55zHNYNFfnZkr9kvf+ObywEf+JqcZ98XIqrxY6X4BnqUgH8IDdgojDqOl9LipcPS0py7nXvoSz6194cRUBHs8+VYP62Abu7a97gR4fZdMdVY9Dp7Gd+hevdz8vvctN2nKw2tXLDH6mxY8JlqZMe283T5lBofgLSJuY8u/aiPeOvf7iW97y3LxPe9Zzr/xjcvh83URqDOPVzRUf9bm/cjqF7+4XP3KV/xQks9IthrWgetI3Xn2g9WPg8N4N7KtfvD1UezWzx/X6sfwspw2BiGsfWMGvAjO2lR2fANTm2UyG9IXhf+bTYcumHKmlVfojg15Uwt5yzlURHSauCvReZhm+KbJW5bHv/OdHlmZZnCqZk350a993R354U9+arn6E00zLuk0abthMexF2kEdq+bKPHXnnckNBX6ajBGUDq6OfKALoMOnPGU5es6zPXoz4vGOoJ8bZuSmE6kz2TxwQSMVRRYBVC6fzeJg4YtL5170Qp36VQ+VzatjrJGPHh1Od2sz0NNoyG1qLu54JY01Yl6y5dsdvCV+7vZX+rMKdDgOWMpnFHVH/sIXlyvax1e/frdfuHVdhNFWHZR1HNMPnvPe/+yHOrjazAf8JbUtb764AbQPJnM9AU19tzqgGKfJV4QoFboeZdOhGaEf+NzngpGC0eP5UzpSa/7eoQOV1wkDFbiRd//IbV78k7IuneriK29bbvmTP1lu5nFHda5azbjyo3uXB//uY8vDn9Y0g9UMGhSLtrOxm+CswSmSh+/9ZVO+cM/pnrktp1JGHsUHj3+8Rzs+gsgLq54mcPHJqRd7LP0x/yWP7ROqZQIuNYtmLs78/0gd+fxrXu3veJCfW8pXv//95Qr+V4ceyLpgxGXG46d0JK8+cMC9GHuvWS7ceWe83a0LvqOXv9zTJzobNv0yrOpJB76kjnzpE59crnz1q+7MXtmx/SjCRAdMAoMAqx86KE5d/RAoK958UV18cU0dLAoEqzaJWUeppEDQk41JjkxpWMM2sazwybJ//r51hI7GjAylP1AybwOmK18XCLaQvLBmIqLSnwoQSzvk5jvu8DTjJu00OnetZly6O6cZvKSZqxmeZmCKzVS5jIUoS4HTokabE51Kr2oeiY2TBx+Kt7VvvkkXoPETbrH8o4bRWeLouc9ZzqsDcUrnw+uew9NpuG5kpYDOkWUR+eaNgr+VoQ7NiHz0vOcu59pnAE5+oVHz299ZrnzjW56vW9/1qHZMXznQWG7UKZ+3wi+87W3+Aqo/GPl6XU+8VBe4+KNpB53M+WSPx2SvqvM+8pGPLpc/pbPY17/u73kw0tq+6xjthruBSIsTNFt84Mzk1Y9882Vn9aOe/eC7H7/1xaJt20Jas2GC6hmWS6KQ2yjc7MgPmTrxP4DUU1sntEXNpOqlfXPwz/0sx7psV84MFG+wZ41wODDRpeWo5RnsVQ7ltEawc7qQOf+iF/mb0FzQcIOE1YyHNMV4mLefp9WMipL2ZluW0igRtMM9P1Z+vj9H5/b3MjTC0Lm9h1FlVMy5tqcjmvLw0RumIsy1GSVZMfEHJJU+ZEfzvQ1dbPr0zC9h8Vjr0+PrShwM47sWv/71cvWH9/q7Ijw/wa8THDzxSXHRqAOIHys6d/vtnk6wfnyBTwm89rXmxZeaNB3ShZov9ujIqg+3sk90gDIKX/78FxQ0xWBEVlv5xV0NCG6XaocNgtX50Aq0B536hm++7K5+9HJW25EOQEeHndzptJH7coefEvgpc5Eaoc/c+9/81fWf/Ov/NjkhTTOZjkNgGCi6IJ2WUjJSs86aRpwHVfDiP6Q6xZ7XDn3cW968POED7/N040RTjd/9f/7d8tBnPudb2wZlZrA1t40tBN9UYvAdGX5bRHkY/em0R3yp/7ZXLBfUcY50QcXUg3k8HdurCDrQfIFFPi6mFFg25IeOeNb6WAeEX7lS2p8J0EUV70HSofmm9EVdDzCakvf4Rz9aLqnDPcrKEqMl89Gb43TuA0fz7rOannAjibRHQzouPoA8KN2ROd3nC7F83JKR+er37/FBQ+cyqDht0hugYWVDrHtmgvxe33x5ry48dV2jawP8whdPBzUN5Ixw+QtfWM5wZ9ENTLlpo9mMkqKs2a+QmIJ/ijvTHnaWLEtToTP3/qu/un7fv/7X2l/aYcjQQYimlc2ODC5cDOdfjc5OkS3z7qODyKhOH8HADCsPh099si8ImXLQOR76pOaAPEDDKQ3dzF9EFN9pcEp6JRWJkAI7xk+bPf4JHoEvsGrwKo2IzKM9+t4ypiRuPMHTBUZ7AnN5Hs3kTW+mIu706nh02PMaqZl7kl9g/u43aBQoNw4WzZWJD4nVeWt+T0euChBzQHEgcWbhhdsf/GC5oos+Xsr1e4kPaTTWSOnyhbHrCGtDnIptWw1Uh5FffPLswh++c7n4/vf7TqSnHHRqXXTzxvqlv/4bf9nJa92qU9lMEzvALzepZFtx9YvRR/blNzP9o0P/6F/9N9d/rBHaFc4Sq/Jl0EgeaNxVt8nByKtoKwOn6cNnZeE8Uw6d1viIDJ2Zz3GR5bFtNa8bP8g5r+3By07qH/x8nC4OWdPlF6aeTnhaTCk8gsZvJzJN4DTrB+FPAzYVvK5NZy1fGGGzvFhOnH0q+PfHWWVgOvHA73wXj+mDf6CHD1ZqLs7IzJeV6ODMY1VYZO42RTtV8e+BfW0cbaSOpYtkLkL51Nj5O+/wHUmmZXRqvtfBN/f4whOfPbjGh3jypzHAjlUxKKuav7CveJTN3iMLvuTVoe/7q38dp7+01Cs0NcPEX9HzjZ0leuRV1G0WTivHVDYgWHe8tHqelRx8skXZiUm/ZRBImlcNipg7hYy+MuRflOXzXhqJfONCo/c53lXUVIg5tR90qlG1Yj5tgL8Zhu9VNg7SqSkjyzGtUdXTGY/6oi9pJH9AnfnnP/cyH9/MZnrjVRqNhkw1/DwK9eXjO77dH0XMoM2IQsg29lHyE9BmJ7ZtNcD0Q/P3A12sXvzgB2JtXdc8nn6oHhx0TD2Yglz54pdUl3gIDNReidJjQznlT4eLTzb5GKWDL0b52bLAzynH2qHDSiDISAfZcgvd8L7Ku4AqcURBIIusfbpBHDUo03AsHfYjnsoTmdzYdpnQ0xM9No1fDVV+iY/MbcOFIheIGqnd0bmYu+UJ/rqnR+0nRRwfN9cFG6snij2Sa57uURrLdNicdnh1gAsp0uoIfKbB6+Uacb1qoAtX1nhZPvPPDvPAvW/2xG3zcrf8rzYr9Pp2dD6daatHel+nDyRf7XHIkuQ73r5cePcfj2XDmH78Wp35y8ulj33MH9Chbl6FwNZwOmOBtt7DTr+qK69AP4mAXYo3mGLKoQ7tESX4bJOuHHA2RoTBE6ZGEVkyx5NoToPiBXuVE82NvdKTb4Pc8iK9Xxeo5EyXvxFlip1aQQzPa4/OLWeJNXf0zwSrw3qNluBpCDcfJNNozcrFuZe8eDl/+20e6ekkjLh8WuHyV7+WKwdX/GwyU6prj/CG+sOef/rGBhd2jNqS+x1JP2ciP1hSw/EM9vUUzO0XKF502sA+PbCXn/k4cLnBw2d7WRM/ZJrILwyoU/PaG581u/yxjy/Hmudz0Vwf5pkwkkFskjuYtEqH3UM7bKcchV6JcgDeNOwnuoPmZ3KHX22HyiZd2t1uZUdi9dSfyk6auHbOLPd22N7nv+WZtGbLM6FEKodnKYYttZvbjgs7dzTOdBKo87EEd9Pb37o87k8+5C/w0zn9ruN/+Ovl4X/376Oz2m/55ulHTEHiGQn4OXoqhP/2YPjrguJ/B9ZvbdJH3K0MkC56i+Crxsoy6TD9YPWD6cd7N6sfOliZ6z/6P/1Py+XP3uXfUPTUiPaSiSw+fG8m9/oQrhtjH4lndtLko0Or9dk18WdsDZJUiF+M/T2AmgINVDmq8Qo9jYNV4upJ11dqzh5wJgTIY+TaBUphLbZRGZefNqtsYD0XhnYqJMJLBe2Q63Rcd2I6r2hU1SFjDqw5I6MpI6+Cpxi9AnRceMx/WZFgicvzzOjcLkX2+Z3BcbCojNkbgXJRFrDfiwBTmYJ3eNN/LPSOVfYbK4qXj5xF+LkNXufiJzJ4sMnPXbMa87Of+ozkj0LWWUWYijeLTQSXBWsHqUOUCiY3yvIoKcUm7fxqtCoTiYxSx3QGUPySiVhlgwpUeuiCTiafbehWelVauWClVhRPsUk2wask9lYXUgaD/+YbtFPe0LARSIaNFnKEjdzqSHTM3JmOc0/4Z+BqVA5DmSdh+yhXaHCeDMForCo7UH7tQ8l6Bwan6Q9YrLqhpw7Mt/wuf+lL8ZkEbu7wFOTffWw5/u73vE5dU9oAmbv9TssPJTFrF0qUCfs76YNVMUoZ8qbsjIWVmshWYmMbo0EqFraOVLp0XXrXHzagk/AWhskmA9v8SQjmkyZKvqOiMy6dwuqbE0m3chSNvEKRxEwj/GCUdigXfL7Y42KQrxNtUf2p2boRbD/IDZLbnUr0tvl9MY/USQiDlJwDlnn/VU2nHv3rv3ZH5oLw0sc/4RtJ47Uv26LtIuuW3gdz97QN+6BTFQ7+8/e9/8O/+9xnw7HMuT1at6MLTpSKeWVbGHmJrCfCOvMoYEppVyj5ISeEQdLlU2GbHpxkD7nzAhdQRQjNwshTG7DKu7/NQNNNHf/DjLKK9Bf+leBmCr/Twl28K9rp/Ljn8f38XByK3bdAldvb2ciyuqDVZgI23LamI55xo3Ij41T/xMpL41n+ePZDF7U8SnBN9fM7iPaVaVNpKoYgezFWolFCK8vl6n+nTTIHcm5948ZQsItkGs4GxiileOcon5KtpOQ7avkLRTnHJF91MnMRxrCRRcVJX1hVApOtLlyP6NikhaGyPfYTzfcO+2NR11XwqPXIclUj1KOf+/zy8N9+fHlEV/yXdFpmXbnU550DoiO6uK0MXuYrbPdVodzdtV/YzUdd+j7ah519lGBqxFTLqzEPPBCdOdefqcfkxpR9dnC2vKYolrBbHwQRAU3ugjBnfGyM1EqD01KT3rYwp09r8l1YM5X7yAOrWyl61qio6a1kInL0nVY2grOmSmPyfmPQPoqFzpxflFreV/o//4VH5Utf+QcHnoPm5kjoOBLWfB37uRtMPimHjRIY1cycsB11yb7bTrt6HaFf5TSQh7lyGuRpyOFEqiMZ2Tco1dkdUgg6N42VQSGi68vZqlBXL8SOqhyi7GikJzq14CVl/lrwygHVoRyH2PToxGKHHfiOVjR9ZBFQWvUtcyrSFVee3nBz3pAD66QodATxTHd+2nK6/mzHCiHI4BHMzwxnWpFVoJNrexlCHrZKzwHnQigyzjAWs7UioRwLhBxxUUFjqtqjYy131Q9dpiqcRWY7HaQIcVCEDJVZDVnJV52iJ6csiPSqo0Ai1UqbwylJwTq7FVEqqbCx6iTTiITlpoRQXoNZu3HZ7zQYNJGCpehU3vwLOtID1kmu2ZUOUdiIHKs8kfJuzzRJtVxIUraqBD3SoVFllc+gkcaUjAyptFFMTLYy3oetqX263dY+9JE6bK116fQ+hNyU0x2VF/k+nZGXYBdW+eAPJEP/XuVQVm3YmhrozlqC4bV+od904MxR/BVm3cDglV0lex4zCp2cfFsxl5cE3EYXghfplU6fgx10ECud6LKIILpOkyts8/c6PzZCaUe1tcOE0QlKrnhHNRwoE137Pxl7/OntfBpm6Zra8k9rMtK0b3RolVgKZCC1zQDsGIGj1kduNYiYDk45ig7X5IJti45U0DUCBD//pOC0Ajd04i8ADzgfZIVCp4WwW3SFjVLC7C7ao+a8pQeZtohjylT1yYDSyh4IO+QlmJHpiaSibBwGK+OBzOCIZPFGwUVvEe2fu2DVHoUHHWFNg8qzAr7CrmCg2ym4THyIks0Dp5lxeyagsQenuP4+dEfPALYppycroeGknFhTRIr1H84OrlF0b7xCr4zzWsXumwfcOJVGv3yCzL/G2IO9zIGRW5thL7OE7RVVh311Aeanf6tfm7kvUMVNUZ9R7ZQBSIUyNyMbrXR6wgi6UoVoxxX2dW9vivwl2pa/36cVq2yfEryZP9naFe+gPPYIXag8Y9T0dmuLBqgSRM1Cs1MSaSBzbriNcqW2/AnlaaqsHTxQ5WBir33qkuXvYut/T0BPtZhSpsu3hiondFNfUbBLNsPp1ol2zUpjYqadYSiFjmAqDJnQO+imHZwqnzPeLb9jV1r9BcztHFOEksbZYHNBmTEIduXokkit8pBtR3UwdWiEFNYrZrrxCiMlpUGjQ6ZE7FTY8CWoiqdNNDoq1X2YyhWJTXO0qaJm36zUQqatDBEodtBlNRo7zJGh/M1AVJkEl5tq3QfoaGwE2npHmoxNqjpP5StawSwFLBS6/d6BApkBnWxnlwfLYrbkCRm2ylxZqjSA7DoF0vv5G0aDbSmEP+SNaY6NZDaTCkMnciCxvDdElBWMoPQnwmxhrHLYSDKdyYYzXXHlMlLOpunactNDEiremtdRnFFmz5t02Ei+o+QTDXbyGg3ChDb8F12hp/mXgllwnM5EwWnpWGjODj382NKQVl15A/BHct17sCoEgupZd9CEdJCyPZVnlCeFlkpd59+Lra0ZUVbpRLxTvG3PzKEzsbPtGnpdoLo4fmMl2Y6zEua0EkKn80Cjk7/bcACeQorQsV6lIxrYbwO9NcPwh78qG95QSUIIceqsbIG8SU760BHsq/9mmJPMSWr2EKx0Q/HmrqvtVrUYREO2VQq1KW9PtE6548tOgSt2zwKnY9/+ChZng/1yQ0Xsyvbprrxya91HM+JpO5caDCuSKcPeHSId6/EP3fiO+Sudlr/4BUtJo9vojmHHgX9t8K3oDcyDTVS2qIfJSJc5EKe5IclAlOWaJhmlWXdlT/RoN3RCCtd0/RWcQi9DYZQJyrmWD6y2sLGVZSy+ZQqYcQiB5YGafgQv1ZOGX7zQKT2MDXoPqryus6VJErbTj0CVV+zUAY5W2nqRMjZz6IDzlgGhKLODNEy7lWZ+TzQzM5wPYTnUt+SbM/bUkDXmqp8ODYjfM8+J1b+NTk8OleZTdy/o2Amr8koWPK9uzLmUFVEOBkqufJl1f45AybY6la/Cio0mTTc131aewvQLPwnb0RzxcD2xUVlRin7sojKtykEln/KCGkCuw0vbkOzt0MDirVcJc/FwcpLCVv2ec+oISKZ8oGuv6PlOhc2lwR3TlX9rJ9JhfpVti9t/2t3aClTeqX7weihYRUqK1zp2BfhJ7LRzYNRZsJuENVPGiW3Ffg/04gsbq78XaMMbTV9cziRf6Z4PPf9KiKnk92wCbekObeVkRANH8M5pjVGNj52i+3aL1daWrhBp8HvRrZzwLtLhZ/KkXwFPicrETEM0/WBPGLLULVD/aAOeJgtZpLVxvOpu6Uo7LkOZdmjloGI9wsrILF0vdeg8SseI1cctcUsnGAbJgm00pFvmV6fc6nQgK/EuTSLyz/wNnelC8Qn07fCpPAt5JSvrOkLbIth0AlSV6Gnz2JpZqdjYCdPeOgrHCGYJEJkYPMg1MdFrxmHLYkdJJ0hX3sae+SloZjNRgaS0m0KQ2vCPzHrRVsUjsaYducFD2ylj2CVyWGVg1VfAppmls+4fh+Qa6BIgmwS664VcWPtGAIN7YJspCzpUkzVkoia6o/hncmoRg+9Gh2C9HgIrW5tRRrZFpkAs2w0FoVWynIjmUOhHQ26GA/EfQTzibYPBLZsTiqV4yDstFO0IWWUqek9ZoRz0yA8foK/QirAO6X3lAsvqr+fL2EgBOpNEZLcFhi2nNhUQhnbli16QgKdg0bbyob+1GNzYgt0ShfJf0cbdVn4J5PvQWa2dNqJP7kv/tFF/Zq2JooinfEkSjSlHwYocRQoUOMFGIsR8BoiwgZIFsDMValuRqZnRfyWEVMmUYWnaIW5mhj6wjpVhhQDbYX9G2NvlY3wPdxdWChvDN28D0NV0w68N8As/USs//dfqEai6iLXPb5ez4QHplnpYSFW2ybd8IKSg6lQgbU7jU7/ouMnY48NO/8kyMGObCl0HqkJtHwurb06uUw7SKRoI3gbFLEPa1l8gYrsjcvCjFkGvXMP0xJC8dDOuHGxLtRqlMHTM63RiZYfZlNkOgpJFtB9NOEyXHW/Bfr/AKAu6SaxPYlU1HRopC2psa6dbY1Vp2OWkdpCC8xF2dCONzOVYZ4XrUSF5BddlD0I/EwMwIqwUiO0WE1fGaIEeskOvZkZsVtAhLXnDxrtVRzHW92CtbOiQdKi8JRaGbtoaIvRb2RPd7MT4N8sHxJrYTrNpdGK2L4y6rfxAlp7skU/R5EOlYTX2JiFEurZVbKQj5W1lm7LP2i5ukisxMiOE3iKYMRqP5C5mw0bVl3iq+wY7PiUm/pzIOFHVTESHlreoDdUpz5pgd9WfDZGvFeYOZL504Wdh1k943pR05K3Q08JoRWGwZSl1dk9nu7i2872OyNv9MTA1iuuylabcTS4h6h/8PoUAaVSofPssFCJn6aNHULpIoqKdDqJ/LyX8DzthI2mRa3N6E1izWua6DF7k5T/4tHlICo+1D8jzWAgbPawgu01Ip3xAhyyVLYqgtlFWPj4aWwtEOrNT62akEzbEhsKCFVo2kGnsWDFlI2ZbfzNCqhAFjLQRgpU0FdiWNSyXkmLEqTLk1rTA/4Nb22EHOHPoh62SkYh0cbquk96aU0TqQ6y0/9JOpVN90CDNsnuDEOANm6Tzz/TIOoghA+WnO4qRslUlbK+GTqUfG+imPvkeI+9sO3zo2Rxn2qsckQGOxY5imyhSemUENDLyIDc95U77wZ8Fa7R1mrCyZovWHTYDc/4NUG/5i+z+zHRuIYia7Sp6h5e5nBh0JjvMa8ye7uyms9re8Jt+AIaVIpmo/J09awT6iIvu5GfDLj/y7fAne6tsm5v0vrLW3OEbYVWb9SO1ubEy4LVCeKvEBeKg/iHrpoL5FSjQ2lZruREHhU1oJ620aoVO0IFIMwqFvVXWy4WunVHlGIjZUB+zZ1nxwpaplXZwbqPTKzqHuodOmAjaXoWxfEE2YCnCDJnT/6O+YWilE+FLpIOfwW0QYaUilI63tku7Fjdgu7atPBJGkyqVbRuAXvdzwDkcwp9ApztW79aywSiffCOeZf2g6yj2me/97/6r6/f81/97c0K5JPxH0YGg1rSQVrYSH02zpmHOnjzdyZkPlbJVZeUBl1Vk4xdS3u3M+StaeWGmp/fTqWjNnbKVNL/ZAdYrluiNdLID5ZR4teMjbVJAvycHtfIKZpwmb6kkJ3nZTSdaMYmVsSsrhK9bdB79F+y0ZeJUfm78K13f/z/819d/8Ff/Soz4KmRkyoypmSkhaW06tzBp7il8yFNWW8dsVKGguxxIp9lbdWiBpiveqlUQJ/536DI5bLdeY94wH/KxjX9ttE2dnfqmztYj6zXWXK9VVvlKatcsHgpD5njYiTh4JgNFX08LXSYEtxoAjAwigx46ioYf+yD91NTmFP1e71RGf3CbvLDKFGxchOkYuf196J/8P/7v13/2//p/xqecJLXRMhaJ1VAi0o17qo7QHPNMpqXRckqbzl1TkjfBICcbQqbXXB1KJWPyspH1tR1OtnPHHBkzWmWm2LQ6BW+jQ7yyBCUyHdGa2G3F5O2yg8VmNm6sHFHxbzcLczkpuYEdVzFI6w3aQ6pSm6xr/5F8j91dNJtFrMN1xIIpNi42+VaL/Xbm5puX/x9Z6BxtoIOv0AAAAABJRU5ErkJggg==;" vertex="1" parent="jZVaUwOg5UY3L9NAnvdq-71">
          <mxGeometry x="36.42" y="491" width="75.58" height="76" as="geometry" />
        </mxCell>
        <mxCell id="jZVaUwOg5UY3L9NAnvdq-110" style="edgeStyle=elbowEdgeStyle;rounded=0;orthogonalLoop=1;jettySize=auto;html=1;endArrow=open;endFill=0;strokeColor=#545B64;strokeWidth=2;fontSize=14;elbow=horizontal;" edge="1" parent="jZVaUwOg5UY3L9NAnvdq-71" source="I_HhYxaz7bKUwN-vKP4Y-1" target="jZVaUwOg5UY3L9NAnvdq-74">
          <mxGeometry relative="1" as="geometry">
            <mxPoint x="-23" y="293" as="sourcePoint" />
            <Array as="points">
              <mxPoint x="137" y="525" />
              <mxPoint x="57" y="455" />
              <mxPoint x="47" y="375" />
              <mxPoint x="45" y="385" />
            </Array>
          </mxGeometry>
        </mxCell>
        <mxCell id="-QjtrjUzRDEMRZ5MF8oH-46" value="" style="rounded=0;whiteSpace=wrap;html=1;fillColor=#EAEDED;fontSize=22;fontColor=#FFFFFF;strokeColor=none;labelBackgroundColor=none;" vertex="1" parent="1">
          <mxGeometry x="1400" y="126.5" width="539" height="643" as="geometry" />
        </mxCell>
        <mxCell id="-QjtrjUzRDEMRZ5MF8oH-36" value="1" style="rounded=1;whiteSpace=wrap;html=1;fillColor=#007CBD;strokeColor=none;fontColor=#FFFFFF;fontStyle=1;fontSize=22;labelBackgroundColor=none;" vertex="1" parent="1">
          <mxGeometry x="1418.5" y="139" width="40" height="38" as="geometry" />
        </mxCell>
        <mxCell id="-QjtrjUzRDEMRZ5MF8oH-37" value="2" style="rounded=1;whiteSpace=wrap;html=1;fillColor=#007CBD;strokeColor=none;fontColor=#FFFFFF;fontStyle=1;fontSize=22;labelBackgroundColor=none;" vertex="1" parent="1">
          <mxGeometry x="1417" y="261" width="40" height="38" as="geometry" />
        </mxCell>
        <mxCell id="-QjtrjUzRDEMRZ5MF8oH-38" value="3" style="rounded=1;whiteSpace=wrap;html=1;fillColor=#007CBD;strokeColor=none;fontColor=#FFFFFF;fontStyle=1;fontSize=22;labelBackgroundColor=none;" vertex="1" parent="1">
          <mxGeometry x="1417" y="381" width="40" height="38" as="geometry" />
        </mxCell>
        <mxCell id="-QjtrjUzRDEMRZ5MF8oH-39" value="4" style="rounded=1;whiteSpace=wrap;html=1;fillColor=#007CBD;strokeColor=none;fontColor=#FFFFFF;fontStyle=1;fontSize=22;labelBackgroundColor=none;" vertex="1" parent="1">
          <mxGeometry x="1417" y="495" width="40" height="38" as="geometry" />
        </mxCell>
        <mxCell id="-QjtrjUzRDEMRZ5MF8oH-40" value="5" style="rounded=1;whiteSpace=wrap;html=1;fillColor=#007CBD;strokeColor=none;fontColor=#FFFFFF;fontStyle=1;fontSize=22;labelBackgroundColor=none;" vertex="1" parent="1">
          <mxGeometry x="1418.5" y="612" width="40" height="38" as="geometry" />
        </mxCell>
        <mxCell id="-QjtrjUzRDEMRZ5MF8oH-47" value="Desafio TOTVS" style="text;html=1;resizable=0;points=[];autosize=1;align=left;verticalAlign=top;spacingTop=-4;fontSize=30;fontStyle=1;labelBackgroundColor=none;" vertex="1" parent="1">
          <mxGeometry x="36.5" y="26.5" width="240" height="40" as="geometry" />
        </mxCell>
        <mxCell id="-QjtrjUzRDEMRZ5MF8oH-48" value="Arquitetura" style="text;html=1;resizable=0;points=[];autosize=1;align=left;verticalAlign=top;spacingTop=-4;fontSize=16;labelBackgroundColor=none;" vertex="1" parent="1">
          <mxGeometry x="36.5" y="76.5" width="100" height="30" as="geometry" />
        </mxCell>
        <mxCell id="SCVMTBWpLvtzJIhz15lM-1" value="" style="line;strokeWidth=2;html=1;fontSize=14;labelBackgroundColor=none;" vertex="1" parent="1">
          <mxGeometry x="32.5" y="101.5" width="1060" height="10" as="geometry" />
        </mxCell>
        <mxCell id="SCVMTBWpLvtzJIhz15lM-6" value="O AWS Amplify hospeda recursos de sites estáticos, incluindo HTML, CSS, JavaScript e arquivos de imagem que são carregados no navegador do usuário, distribuindo minha aplicação através de Cloudfront e S3." style="text;html=1;align=left;verticalAlign=top;spacingTop=-4;fontSize=14;labelBackgroundColor=none;whiteSpace=wrap;" vertex="1" parent="1">
          <mxGeometry x="1470" y="688.5" width="449" height="118" as="geometry" />
        </mxCell>
        <mxCell id="SCVMTBWpLvtzJIhz15lM-7" value="O JavaScript executado no navegador envia e recebe dados de uma API de backend pública criada usando o Lambda e o API Gateway." style="text;html=1;align=left;verticalAlign=top;spacingTop=-4;fontSize=14;labelBackgroundColor=none;whiteSpace=wrap;" vertex="1" parent="1">
          <mxGeometry x="1469" y="261.5" width="450" height="115" as="geometry" />
        </mxCell>
        <mxCell id="SCVMTBWpLvtzJIhz15lM-9" value="Uma função do IAM que me fornece permissões de leitura, escrita, atualização e remoção do Secrets Manager e no&amp;nbsp;banco de dados Dynamodb" style="text;html=1;align=left;verticalAlign=top;spacingTop=-4;fontSize=14;labelBackgroundColor=none;whiteSpace=wrap;" vertex="1" parent="1">
          <mxGeometry x="1469" y="379.5" width="450" height="117" as="geometry" />
        </mxCell>
        <mxCell id="SCVMTBWpLvtzJIhz15lM-10" value="AWS Key Management Service (AWS KMS), você pode criar, gerenciar e controlar chaves criptográficas nas suas aplicações e serviços da AWS.&lt;br&gt;Criptografando e descriptografando dados sensíveis do banco de dados de forma segura." style="text;html=1;align=left;verticalAlign=top;spacingTop=-4;fontSize=14;labelBackgroundColor=none;whiteSpace=wrap;" vertex="1" parent="1">
          <mxGeometry x="1469" y="495.5" width="450" height="121" as="geometry" />
        </mxCell>
        <mxCell id="SCVMTBWpLvtzJIhz15lM-11" value="O Amazon DynamoDB fornece uma camada de persistência onde os dados podem ser armazenados pela função do Lambda da API.&lt;br&gt;Utilizando TTL(Time-To-Live) para apagar registros específicos." style="text;html=1;align=left;verticalAlign=top;spacingTop=-4;fontSize=14;labelBackgroundColor=none;whiteSpace=wrap;" vertex="1" parent="1">
          <mxGeometry x="1470" y="612.5" width="449" height="114" as="geometry" />
        </mxCell>
        <mxCell id="jZVaUwOg5UY3L9NAnvdq-59" value="Actors" style="swimlane;fontSize=14;align=center;swimlaneFillColor=#f4f4f4;fillColor=#f4f4f4;startSize=33;container=1;pointerEvents=0;collapsible=0;recursiveResize=0;" vertex="1" parent="1">
          <mxGeometry x="30" y="125" width="210" height="177" as="geometry" />
        </mxCell>
        <mxCell id="jZVaUwOg5UY3L9NAnvdq-60" value="User" style="outlineConnect=0;fontColor=#232F3E;gradientColor=none;fillColor=#232F3E;strokeColor=none;dashed=0;verticalLabelPosition=bottom;verticalAlign=top;align=center;html=1;fontSize=12;fontStyle=0;aspect=fixed;pointerEvents=1;shape=mxgraph.aws4.user;labelBackgroundColor=none;" vertex="1" parent="jZVaUwOg5UY3L9NAnvdq-59">
          <mxGeometry x="55" y="54" width="78" height="78" as="geometry" />
        </mxCell>
        <mxCell id="jZVaUwOg5UY3L9NAnvdq-62" value="Channels" style="swimlane;fontSize=14;align=center;swimlaneFillColor=#f4f4f4;fillColor=#f4f4f4;startSize=33;container=1;pointerEvents=0;collapsible=0;recursiveResize=0;" vertex="1" parent="1">
          <mxGeometry x="30" y="302" width="210" height="580" as="geometry" />
        </mxCell>
        <mxCell id="jZVaUwOg5UY3L9NAnvdq-65" value="Mobile / Web" style="outlineConnect=0;fontColor=#232F3E;gradientColor=none;strokeColor=none;fillColor=#277116;dashed=0;verticalLabelPosition=bottom;verticalAlign=top;align=center;html=1;fontSize=12;fontStyle=0;shape=mxgraph.aws4.mobile_client;labelBackgroundColor=none;" vertex="1" parent="jZVaUwOg5UY3L9NAnvdq-62">
          <mxGeometry x="67.5" y="57.5" width="53" height="100" as="geometry" />
        </mxCell>
        <mxCell id="I_HhYxaz7bKUwN-vKP4Y-5" value="" style="edgeStyle=elbowEdgeStyle;rounded=0;orthogonalLoop=1;jettySize=auto;html=1;endArrow=open;endFill=0;strokeColor=#545B64;strokeWidth=2;fontSize=14;elbow=horizontal;" edge="1" parent="1" target="I_HhYxaz7bKUwN-vKP4Y-1">
          <mxGeometry relative="1" as="geometry">
            <mxPoint x="240" y="418" as="sourcePoint" />
            <mxPoint x="375" y="652" as="targetPoint" />
            <Array as="points" />
          </mxGeometry>
        </mxCell>
        <mxCell id="I_HhYxaz7bKUwN-vKP4Y-8" value="6" style="rounded=1;whiteSpace=wrap;html=1;fillColor=#007CBD;strokeColor=none;fontColor=#FFFFFF;fontStyle=1;fontSize=22;labelBackgroundColor=none;" vertex="1" parent="1">
          <mxGeometry x="1418.5" y="688.5" width="40" height="38" as="geometry" />
        </mxCell>
        <mxCell id="I_HhYxaz7bKUwN-vKP4Y-11" value="O AWS WAF ajuda você a se proteger contra explorações comuns da Web e bots que podem afetar a disponibilidade, comprometer a segurança ou consumir recursos excessivos." style="text;html=1;align=left;verticalAlign=top;spacingTop=-4;fontSize=14;labelBackgroundColor=none;whiteSpace=wrap;" vertex="1" parent="1">
          <mxGeometry x="1469" y="139" width="450" height="115" as="geometry" />
        </mxCell>
      </root>
    </mxGraphModel>
  </diagram>
</mxfile>
